<mxfile host="app.diagrams.net" modified="2022-06-13T17:56:50.116Z" agent="5.0 (Windows NT 10.0; Win64; x64) AppleWebKit/537.36 (KHTML, like Gecko) Chrome/102.0.5005.63 Safari/537.36" etag="pwJsOT55wwCAJaDIExAG" version="19.0.2" type="github" pages="14">
  <diagram id="C5RBs43oDa-KdzZeNtuy" name="Page-1">
    <mxGraphModel dx="965" dy="597" grid="1" gridSize="10" guides="1" tooltips="1" connect="1" arrows="1" fold="1" page="1" pageScale="1" pageWidth="827" pageHeight="1169" math="0" shadow="0">
      <root>
        <mxCell id="WIyWlLk6GJQsqaUBKTNV-0" />
        <mxCell id="WIyWlLk6GJQsqaUBKTNV-1" parent="WIyWlLk6GJQsqaUBKTNV-0" />
        <mxCell id="eCt4R7-RgRgZ0lPk0mZ2-34" style="edgeStyle=orthogonalEdgeStyle;rounded=0;orthogonalLoop=1;jettySize=auto;html=1;fontSize=9;" parent="WIyWlLk6GJQsqaUBKTNV-1" edge="1">
          <mxGeometry relative="1" as="geometry">
            <mxPoint x="406" y="123" as="targetPoint" />
            <mxPoint x="406" y="196" as="sourcePoint" />
          </mxGeometry>
        </mxCell>
        <mxCell id="zkfFHV4jXpPFQw0GAbJ--0" value="StageMap" style="swimlane;fontStyle=2;align=center;verticalAlign=top;childLayout=stackLayout;horizontal=1;startSize=26;horizontalStack=0;resizeParent=1;resizeLast=0;collapsible=1;marginBottom=0;rounded=0;shadow=0;strokeWidth=1;" parent="WIyWlLk6GJQsqaUBKTNV-1" vertex="1">
          <mxGeometry x="326" y="203" width="160" height="166" as="geometry">
            <mxRectangle x="220" y="120" width="160" height="26" as="alternateBounds" />
          </mxGeometry>
        </mxCell>
        <mxCell id="zkfFHV4jXpPFQw0GAbJ--1" value="map_data_value : Map&lt;Character, Integer&gt;" style="text;align=left;verticalAlign=top;spacingLeft=4;spacingRight=4;overflow=hidden;rotatable=0;points=[[0,0.5],[1,0.5]];portConstraint=eastwest;fontSize=8;" parent="zkfFHV4jXpPFQw0GAbJ--0" vertex="1">
          <mxGeometry y="26" width="160" height="26" as="geometry" />
        </mxCell>
        <mxCell id="zkfFHV4jXpPFQw0GAbJ--4" value="" style="line;html=1;strokeWidth=1;align=left;verticalAlign=middle;spacingTop=-1;spacingLeft=3;spacingRight=3;rotatable=0;labelPosition=right;points=[];portConstraint=eastwest;" parent="zkfFHV4jXpPFQw0GAbJ--0" vertex="1">
          <mxGeometry y="52" width="160" height="8" as="geometry" />
        </mxCell>
        <mxCell id="PgwagC6cDhL4ffT21aRA-1" value="StageMap()" style="text;strokeColor=none;fillColor=none;align=left;verticalAlign=top;spacingLeft=4;spacingRight=4;overflow=hidden;rotatable=0;points=[[0,0.5],[1,0.5]];portConstraint=eastwest;fontSize=8;" parent="zkfFHV4jXpPFQw0GAbJ--0" vertex="1">
          <mxGeometry y="60" width="160" height="26" as="geometry" />
        </mxCell>
        <mxCell id="PgwagC6cDhL4ffT21aRA-2" value="createMap(int[][]) : List&lt;Mapdata&gt;" style="text;strokeColor=none;fillColor=none;align=left;verticalAlign=top;spacingLeft=4;spacingRight=4;overflow=hidden;rotatable=0;points=[[0,0.5],[1,0.5]];portConstraint=eastwest;fontSize=8;" parent="zkfFHV4jXpPFQw0GAbJ--0" vertex="1">
          <mxGeometry y="86" width="160" height="26" as="geometry" />
        </mxCell>
        <mxCell id="PgwagC6cDhL4ffT21aRA-3" value="showMap(List&lt;MapData&gt;) : void" style="text;strokeColor=none;fillColor=none;align=left;verticalAlign=top;spacingLeft=4;spacingRight=4;overflow=hidden;rotatable=0;points=[[0,0.5],[1,0.5]];portConstraint=eastwest;fontSize=8;" parent="zkfFHV4jXpPFQw0GAbJ--0" vertex="1">
          <mxGeometry y="112" width="160" height="26" as="geometry" />
        </mxCell>
        <mxCell id="PgwagC6cDhL4ffT21aRA-4" value="getMapData(int) : char" style="text;strokeColor=none;fillColor=none;align=left;verticalAlign=top;spacingLeft=4;spacingRight=4;overflow=hidden;rotatable=0;points=[[0,0.5],[1,0.5]];portConstraint=eastwest;fontSize=9;" parent="zkfFHV4jXpPFQw0GAbJ--0" vertex="1">
          <mxGeometry y="138" width="160" height="26" as="geometry" />
        </mxCell>
        <mxCell id="zkfFHV4jXpPFQw0GAbJ--17" value="MapData" style="swimlane;fontStyle=0;align=center;verticalAlign=top;childLayout=stackLayout;horizontal=1;startSize=26;horizontalStack=0;resizeParent=1;resizeLast=0;collapsible=1;marginBottom=0;rounded=0;shadow=0;strokeWidth=1;" parent="WIyWlLk6GJQsqaUBKTNV-1" vertex="1">
          <mxGeometry x="667" y="107" width="160" height="416" as="geometry">
            <mxRectangle x="550" y="140" width="160" height="26" as="alternateBounds" />
          </mxGeometry>
        </mxCell>
        <mxCell id="zkfFHV4jXpPFQw0GAbJ--21" value="stage_name : String " style="text;align=left;verticalAlign=top;spacingLeft=4;spacingRight=4;overflow=hidden;rotatable=0;points=[[0,0.5],[1,0.5]];portConstraint=eastwest;rounded=0;shadow=0;html=0;fontSize=9;" parent="zkfFHV4jXpPFQw0GAbJ--17" vertex="1">
          <mxGeometry y="26" width="160" height="24" as="geometry" />
        </mxCell>
        <mxCell id="zkfFHV4jXpPFQw0GAbJ--22" value="map_data : int[][] " style="text;align=left;verticalAlign=top;spacingLeft=4;spacingRight=4;overflow=hidden;rotatable=0;points=[[0,0.5],[1,0.5]];portConstraint=eastwest;rounded=0;shadow=0;html=0;fontSize=9;" parent="zkfFHV4jXpPFQw0GAbJ--17" vertex="1">
          <mxGeometry y="50" width="160" height="20" as="geometry" />
        </mxCell>
        <mxCell id="Ov4_pddnvHByxwkPcZbn-1" value="player_pos : int[] " style="text;align=left;verticalAlign=top;spacingLeft=4;spacingRight=4;overflow=hidden;rotatable=0;points=[[0,0.5],[1,0.5]];portConstraint=eastwest;rounded=0;shadow=0;html=0;fontSize=9;" parent="zkfFHV4jXpPFQw0GAbJ--17" vertex="1">
          <mxGeometry y="70" width="160" height="20" as="geometry" />
        </mxCell>
        <mxCell id="eCt4R7-RgRgZ0lPk0mZ2-8" value="map_data_origin : int[][]" style="text;strokeColor=none;fillColor=none;align=left;verticalAlign=top;spacingLeft=4;spacingRight=4;overflow=hidden;rotatable=0;points=[[0,0.5],[1,0.5]];portConstraint=eastwest;fontSize=9;" parent="zkfFHV4jXpPFQw0GAbJ--17" vertex="1">
          <mxGeometry y="90" width="160" height="26" as="geometry" />
        </mxCell>
        <mxCell id="eCt4R7-RgRgZ0lPk0mZ2-9" value="player_pos_origin : int[]" style="text;strokeColor=none;fillColor=none;align=left;verticalAlign=top;spacingLeft=4;spacingRight=4;overflow=hidden;rotatable=0;points=[[0,0.5],[1,0.5]];portConstraint=eastwest;fontSize=9;" parent="zkfFHV4jXpPFQw0GAbJ--17" vertex="1">
          <mxGeometry y="116" width="160" height="26" as="geometry" />
        </mxCell>
        <mxCell id="zkfFHV4jXpPFQw0GAbJ--23" value="" style="line;html=1;strokeWidth=1;align=left;verticalAlign=middle;spacingTop=-1;spacingLeft=3;spacingRight=3;rotatable=0;labelPosition=right;points=[];portConstraint=eastwest;" parent="zkfFHV4jXpPFQw0GAbJ--17" vertex="1">
          <mxGeometry y="142" width="160" height="8" as="geometry" />
        </mxCell>
        <mxCell id="PgwagC6cDhL4ffT21aRA-5" value="setStage_name(String) : void" style="text;strokeColor=none;fillColor=none;align=left;verticalAlign=top;spacingLeft=4;spacingRight=4;overflow=hidden;rotatable=0;points=[[0,0.5],[1,0.5]];portConstraint=eastwest;fontSize=10;" parent="zkfFHV4jXpPFQw0GAbJ--17" vertex="1">
          <mxGeometry y="150" width="160" height="26" as="geometry" />
        </mxCell>
        <mxCell id="PgwagC6cDhL4ffT21aRA-6" value="setMap_data(int[][]) : void" style="text;strokeColor=none;fillColor=none;align=left;verticalAlign=top;spacingLeft=4;spacingRight=4;overflow=hidden;rotatable=0;points=[[0,0.5],[1,0.5]];portConstraint=eastwest;fontSize=9;" parent="zkfFHV4jXpPFQw0GAbJ--17" vertex="1">
          <mxGeometry y="176" width="160" height="26" as="geometry" />
        </mxCell>
        <mxCell id="Ov4_pddnvHByxwkPcZbn-3" value="setPlayer_pos(int[]) : void" style="text;strokeColor=none;fillColor=none;align=left;verticalAlign=top;spacingLeft=4;spacingRight=4;overflow=hidden;rotatable=0;points=[[0,0.5],[1,0.5]];portConstraint=eastwest;fontSize=9;" parent="zkfFHV4jXpPFQw0GAbJ--17" vertex="1">
          <mxGeometry y="202" width="160" height="26" as="geometry" />
        </mxCell>
        <mxCell id="eCt4R7-RgRgZ0lPk0mZ2-10" value="setMap_data_origin(int[][]) : void" style="text;strokeColor=none;fillColor=none;align=left;verticalAlign=top;spacingLeft=4;spacingRight=4;overflow=hidden;rotatable=0;points=[[0,0.5],[1,0.5]];portConstraint=eastwest;fontSize=9;" parent="zkfFHV4jXpPFQw0GAbJ--17" vertex="1">
          <mxGeometry y="228" width="160" height="26" as="geometry" />
        </mxCell>
        <mxCell id="eCt4R7-RgRgZ0lPk0mZ2-11" value="setPlayer_pos(int[]) : void" style="text;strokeColor=none;fillColor=none;align=left;verticalAlign=top;spacingLeft=4;spacingRight=4;overflow=hidden;rotatable=0;points=[[0,0.5],[1,0.5]];portConstraint=eastwest;fontSize=9;" parent="zkfFHV4jXpPFQw0GAbJ--17" vertex="1">
          <mxGeometry y="254" width="160" height="26" as="geometry" />
        </mxCell>
        <mxCell id="zkfFHV4jXpPFQw0GAbJ--25" value="getMap_data() : int[][]" style="text;align=left;verticalAlign=top;spacingLeft=4;spacingRight=4;overflow=hidden;rotatable=0;points=[[0,0.5],[1,0.5]];portConstraint=eastwest;fontSize=10;" parent="zkfFHV4jXpPFQw0GAbJ--17" vertex="1">
          <mxGeometry y="280" width="160" height="26" as="geometry" />
        </mxCell>
        <mxCell id="zkfFHV4jXpPFQw0GAbJ--24" value="getStage_name() : String" style="text;align=left;verticalAlign=top;spacingLeft=4;spacingRight=4;overflow=hidden;rotatable=0;points=[[0,0.5],[1,0.5]];portConstraint=eastwest;fontSize=10;" parent="zkfFHV4jXpPFQw0GAbJ--17" vertex="1">
          <mxGeometry y="306" width="160" height="26" as="geometry" />
        </mxCell>
        <mxCell id="Ov4_pddnvHByxwkPcZbn-2" value="getPlayer_pos() : int[]" style="text;align=left;verticalAlign=top;spacingLeft=4;spacingRight=4;overflow=hidden;rotatable=0;points=[[0,0.5],[1,0.5]];portConstraint=eastwest;fontSize=10;" parent="zkfFHV4jXpPFQw0GAbJ--17" vertex="1">
          <mxGeometry y="332" width="160" height="26" as="geometry" />
        </mxCell>
        <mxCell id="eCt4R7-RgRgZ0lPk0mZ2-12" value="getMap_data_origin() : int[][]" style="text;align=left;verticalAlign=top;spacingLeft=4;spacingRight=4;overflow=hidden;rotatable=0;points=[[0,0.5],[1,0.5]];portConstraint=eastwest;fontSize=10;" parent="zkfFHV4jXpPFQw0GAbJ--17" vertex="1">
          <mxGeometry y="358" width="160" height="26" as="geometry" />
        </mxCell>
        <mxCell id="eCt4R7-RgRgZ0lPk0mZ2-13" value="getPlayer_pos_origin() : int[]" style="text;align=left;verticalAlign=top;spacingLeft=4;spacingRight=4;overflow=hidden;rotatable=0;points=[[0,0.5],[1,0.5]];portConstraint=eastwest;fontSize=10;" parent="zkfFHV4jXpPFQw0GAbJ--17" vertex="1">
          <mxGeometry y="384" width="160" height="26" as="geometry" />
        </mxCell>
        <mxCell id="zkfFHV4jXpPFQw0GAbJ--26" value="" style="endArrow=open;shadow=0;strokeWidth=1;rounded=0;endFill=0;edgeStyle=elbowEdgeStyle;elbow=vertical;" parent="WIyWlLk6GJQsqaUBKTNV-1" source="zkfFHV4jXpPFQw0GAbJ--0" target="zkfFHV4jXpPFQw0GAbJ--17" edge="1">
          <mxGeometry x="0.5" y="41" relative="1" as="geometry">
            <mxPoint x="448" y="275" as="sourcePoint" />
            <mxPoint x="608" y="275" as="targetPoint" />
            <mxPoint x="-40" y="32" as="offset" />
          </mxGeometry>
        </mxCell>
        <mxCell id="zkfFHV4jXpPFQw0GAbJ--29" value="객체 생성" style="text;html=1;resizable=0;points=[];;align=center;verticalAlign=middle;labelBackgroundColor=none;rounded=0;shadow=0;strokeWidth=1;fontSize=12;" parent="zkfFHV4jXpPFQw0GAbJ--26" vertex="1" connectable="0">
          <mxGeometry x="0.5" y="49" relative="1" as="geometry">
            <mxPoint x="694" y="410" as="offset" />
          </mxGeometry>
        </mxCell>
        <mxCell id="cLUWwpBL5YjOnr7h-FVT-0" style="edgeStyle=orthogonalEdgeStyle;rounded=0;orthogonalLoop=1;jettySize=auto;html=1;entryX=0.006;entryY=0.89;entryDx=0;entryDy=0;entryPerimeter=0;" parent="WIyWlLk6GJQsqaUBKTNV-1" source="PgwagC6cDhL4ffT21aRA-11" target="PgwagC6cDhL4ffT21aRA-1" edge="1">
          <mxGeometry relative="1" as="geometry" />
        </mxCell>
        <mxCell id="cLUWwpBL5YjOnr7h-FVT-1" style="edgeStyle=orthogonalEdgeStyle;rounded=0;orthogonalLoop=1;jettySize=auto;html=1;entryX=0;entryY=0.5;entryDx=0;entryDy=0;" parent="WIyWlLk6GJQsqaUBKTNV-1" source="PgwagC6cDhL4ffT21aRA-11" target="eCt4R7-RgRgZ0lPk0mZ2-1" edge="1">
          <mxGeometry relative="1" as="geometry" />
        </mxCell>
        <mxCell id="PgwagC6cDhL4ffT21aRA-11" value="&lt;p style=&quot;margin: 0px ; margin-top: 4px ; text-align: center&quot;&gt;Sokoban&lt;br&gt;&lt;/p&gt;&lt;hr size=&quot;1&quot;&gt;&lt;div style=&quot;height: 2px&quot;&gt;&lt;/div&gt;&lt;hr size=&quot;1&quot;&gt;&lt;div style=&quot;height: 2px&quot;&gt;&lt;span style=&quot;font-size: 10px&quot;&gt;&amp;nbsp; main(String[]) : void&lt;/span&gt;&lt;/div&gt;" style="verticalAlign=top;align=left;overflow=fill;fontSize=12;fontFamily=Helvetica;html=1;" parent="WIyWlLk6GJQsqaUBKTNV-1" vertex="1">
          <mxGeometry x="90" y="251" width="140" height="70" as="geometry" />
        </mxCell>
        <mxCell id="diUB_wr8ERUkCXueXjgz-0" value="&lt;p style=&quot;margin: 0px ; margin-top: 4px ; text-align: center&quot;&gt;GamePlay&lt;br&gt;&lt;/p&gt;&lt;hr size=&quot;1&quot;&gt;&lt;div style=&quot;height: 2px&quot;&gt;&lt;/div&gt;&lt;hr size=&quot;1&quot;&gt;&lt;div style=&quot;height: 2px&quot;&gt;&lt;span style=&quot;font-size: 10px&quot;&gt;&amp;nbsp; showMap(int[][]) : void&lt;/span&gt;&lt;/div&gt;&lt;div style=&quot;height: 2px&quot;&gt;&lt;span style=&quot;font-size: 10px&quot;&gt;&lt;br&gt;&lt;/span&gt;&lt;/div&gt;" style="verticalAlign=top;align=left;overflow=fill;fontSize=12;fontFamily=Helvetica;html=1;" parent="WIyWlLk6GJQsqaUBKTNV-1" vertex="1">
          <mxGeometry x="284" y="410" width="261" height="246" as="geometry" />
        </mxCell>
        <mxCell id="diUB_wr8ERUkCXueXjgz-1" value="moveMap(MapData) : boolean" style="text;strokeColor=none;fillColor=none;align=left;verticalAlign=top;spacingLeft=4;spacingRight=4;overflow=hidden;rotatable=0;points=[[0,0.5],[1,0.5]];portConstraint=eastwest;fontSize=10;" parent="WIyWlLk6GJQsqaUBKTNV-1" vertex="1">
          <mxGeometry x="285" y="481" width="170" height="26" as="geometry" />
        </mxCell>
        <mxCell id="diUB_wr8ERUkCXueXjgz-5" value="checkCommand(int[][],int[][], int[], char) : MapData" style="text;strokeColor=none;fillColor=none;align=left;verticalAlign=top;spacingLeft=4;spacingRight=4;overflow=hidden;rotatable=0;points=[[0,0.5],[1,0.5]];portConstraint=eastwest;fontSize=8;" parent="WIyWlLk6GJQsqaUBKTNV-1" vertex="1">
          <mxGeometry x="284" y="616" width="200" height="26" as="geometry" />
        </mxCell>
        <mxCell id="Ov4_pddnvHByxwkPcZbn-0" value="checkClear(int[][], int[][]) : boolean" style="text;strokeColor=none;fillColor=none;align=left;verticalAlign=top;spacingLeft=4;spacingRight=4;overflow=hidden;rotatable=0;points=[[0,0.5],[1,0.5]];portConstraint=eastwest;fontSize=9;" parent="WIyWlLk6GJQsqaUBKTNV-1" vertex="1">
          <mxGeometry x="284" y="632" width="170" height="40" as="geometry" />
        </mxCell>
        <mxCell id="eCt4R7-RgRgZ0lPk0mZ2-0" value="initStage(int[][], int[][], List&lt;int[][]&gt;, int[], int[], List&lt;int[]&gt;) : void" style="text;strokeColor=none;fillColor=none;align=left;verticalAlign=top;spacingLeft=4;spacingRight=4;overflow=hidden;rotatable=0;points=[[0,0.5],[1,0.5]];portConstraint=eastwest;fontSize=9;" parent="WIyWlLk6GJQsqaUBKTNV-1" vertex="1">
          <mxGeometry x="283" y="512" width="259" height="26" as="geometry" />
        </mxCell>
        <mxCell id="cLUWwpBL5YjOnr7h-FVT-2" style="edgeStyle=orthogonalEdgeStyle;rounded=0;orthogonalLoop=1;jettySize=auto;html=1;entryX=0.5;entryY=1;entryDx=0;entryDy=0;" parent="WIyWlLk6GJQsqaUBKTNV-1" source="eCt4R7-RgRgZ0lPk0mZ2-1" target="zkfFHV4jXpPFQw0GAbJ--17" edge="1">
          <mxGeometry relative="1" as="geometry" />
        </mxCell>
        <mxCell id="eCt4R7-RgRgZ0lPk0mZ2-1" value="saveMap(int, int[][], int[]) : int" style="text;strokeColor=none;fillColor=none;align=left;verticalAlign=top;spacingLeft=4;spacingRight=4;overflow=hidden;rotatable=0;points=[[0,0.5],[1,0.5]];portConstraint=eastwest;fontSize=9;" parent="WIyWlLk6GJQsqaUBKTNV-1" vertex="1">
          <mxGeometry x="284" y="538" width="260" height="26" as="geometry" />
        </mxCell>
        <mxCell id="eCt4R7-RgRgZ0lPk0mZ2-4" value="loadMap(int, List&lt;int[][]&gt;, List&lt;int[]&gt; : MapData" style="text;strokeColor=none;fillColor=none;align=left;verticalAlign=top;spacingLeft=4;spacingRight=4;overflow=hidden;rotatable=0;points=[[0,0.5],[1,0.5]];portConstraint=eastwest;fontSize=9;" parent="WIyWlLk6GJQsqaUBKTNV-1" vertex="1">
          <mxGeometry x="283" y="564" width="259" height="26" as="geometry" />
        </mxCell>
        <mxCell id="eCt4R7-RgRgZ0lPk0mZ2-7" value="goBackOrForward(char, int, int[][], List&lt;int[][]&gt;, int[], List&lt;int[]&gt; : int" style="text;strokeColor=none;fillColor=none;align=left;verticalAlign=top;spacingLeft=4;spacingRight=4;overflow=hidden;rotatable=0;points=[[0,0.5],[1,0.5]];portConstraint=eastwest;fontSize=8;" parent="WIyWlLk6GJQsqaUBKTNV-1" vertex="1">
          <mxGeometry x="284" y="590" width="260" height="26" as="geometry" />
        </mxCell>
        <mxCell id="eCt4R7-RgRgZ0lPk0mZ2-24" value="Converter" style="swimlane;fontStyle=1;align=center;verticalAlign=top;childLayout=stackLayout;horizontal=1;startSize=26;horizontalStack=0;resizeParent=1;resizeParentMax=0;resizeLast=0;collapsible=1;marginBottom=0;fontSize=9;" parent="WIyWlLk6GJQsqaUBKTNV-1" vertex="1">
          <mxGeometry x="50" y="47" width="160" height="60" as="geometry" />
        </mxCell>
        <mxCell id="eCt4R7-RgRgZ0lPk0mZ2-26" value="" style="line;strokeWidth=1;fillColor=none;align=left;verticalAlign=middle;spacingTop=-1;spacingLeft=3;spacingRight=3;rotatable=0;labelPosition=right;points=[];portConstraint=eastwest;fontSize=9;" parent="eCt4R7-RgRgZ0lPk0mZ2-24" vertex="1">
          <mxGeometry y="26" width="160" height="8" as="geometry" />
        </mxCell>
        <mxCell id="eCt4R7-RgRgZ0lPk0mZ2-27" value=" main(String[]) : void" style="text;strokeColor=none;fillColor=none;align=left;verticalAlign=top;spacingLeft=4;spacingRight=4;overflow=hidden;rotatable=0;points=[[0,0.5],[1,0.5]];portConstraint=eastwest;fontSize=9;" parent="eCt4R7-RgRgZ0lPk0mZ2-24" vertex="1">
          <mxGeometry y="34" width="160" height="26" as="geometry" />
        </mxCell>
        <mxCell id="eCt4R7-RgRgZ0lPk0mZ2-28" value="AESCryptoUtil" style="swimlane;fontStyle=1;align=center;verticalAlign=top;childLayout=stackLayout;horizontal=1;startSize=26;horizontalStack=0;resizeParent=1;resizeParentMax=0;resizeLast=0;collapsible=1;marginBottom=0;fontSize=9;" parent="WIyWlLk6GJQsqaUBKTNV-1" vertex="1">
          <mxGeometry x="334" y="34" width="226" height="86" as="geometry" />
        </mxCell>
        <mxCell id="eCt4R7-RgRgZ0lPk0mZ2-30" value="" style="line;strokeWidth=1;fillColor=none;align=left;verticalAlign=middle;spacingTop=-1;spacingLeft=3;spacingRight=3;rotatable=0;labelPosition=right;points=[];portConstraint=eastwest;fontSize=9;" parent="eCt4R7-RgRgZ0lPk0mZ2-28" vertex="1">
          <mxGeometry y="26" width="226" height="8" as="geometry" />
        </mxCell>
        <mxCell id="eCt4R7-RgRgZ0lPk0mZ2-31" value="encryptFile(String, String, String, File, File) : void" style="text;strokeColor=none;fillColor=none;align=left;verticalAlign=top;spacingLeft=4;spacingRight=4;overflow=hidden;rotatable=0;points=[[0,0.5],[1,0.5]];portConstraint=eastwest;fontSize=9;" parent="eCt4R7-RgRgZ0lPk0mZ2-28" vertex="1">
          <mxGeometry y="34" width="226" height="26" as="geometry" />
        </mxCell>
        <mxCell id="eCt4R7-RgRgZ0lPk0mZ2-33" value="decryptFile(String, String, String, File, File) : void" style="text;strokeColor=none;fillColor=none;align=left;verticalAlign=top;spacingLeft=4;spacingRight=4;overflow=hidden;rotatable=0;points=[[0,0.5],[1,0.5]];portConstraint=eastwest;fontSize=9;" parent="eCt4R7-RgRgZ0lPk0mZ2-28" vertex="1">
          <mxGeometry y="60" width="226" height="26" as="geometry" />
        </mxCell>
        <mxCell id="eCt4R7-RgRgZ0lPk0mZ2-32" style="edgeStyle=orthogonalEdgeStyle;rounded=0;orthogonalLoop=1;jettySize=auto;html=1;fontSize=9;" parent="WIyWlLk6GJQsqaUBKTNV-1" source="eCt4R7-RgRgZ0lPk0mZ2-27" edge="1">
          <mxGeometry relative="1" as="geometry">
            <mxPoint x="330" y="94" as="targetPoint" />
          </mxGeometry>
        </mxCell>
      </root>
    </mxGraphModel>
  </diagram>
  <diagram id="Q8NVrE94krvHq6pAoG1z" name="Page-2">
    <mxGraphModel dx="965" dy="597" grid="0" gridSize="10" guides="1" tooltips="1" connect="1" arrows="1" fold="1" page="1" pageScale="1" pageWidth="827" pageHeight="1169" math="0" shadow="0">
      <root>
        <mxCell id="0uiTTxUJXEOrvFLaX4XR-0" />
        <mxCell id="0uiTTxUJXEOrvFLaX4XR-1" parent="0uiTTxUJXEOrvFLaX4XR-0" />
        <mxCell id="MxBAihkRJJouujoG5Gei-0" value="" style="edgeStyle=orthogonalEdgeStyle;rounded=0;orthogonalLoop=1;jettySize=auto;html=1;" parent="0uiTTxUJXEOrvFLaX4XR-1" source="MxBAihkRJJouujoG5Gei-1" target="MxBAihkRJJouujoG5Gei-5" edge="1">
          <mxGeometry relative="1" as="geometry" />
        </mxCell>
        <mxCell id="MxBAihkRJJouujoG5Gei-1" value="Main" style="rounded=0;whiteSpace=wrap;html=1;" parent="0uiTTxUJXEOrvFLaX4XR-1" vertex="1">
          <mxGeometry x="12" y="280" width="90" height="60" as="geometry" />
        </mxCell>
        <mxCell id="MxBAihkRJJouujoG5Gei-2" value="" style="edgeStyle=orthogonalEdgeStyle;rounded=0;orthogonalLoop=1;jettySize=auto;html=1;" parent="0uiTTxUJXEOrvFLaX4XR-1" source="MxBAihkRJJouujoG5Gei-5" target="MxBAihkRJJouujoG5Gei-8" edge="1">
          <mxGeometry relative="1" as="geometry" />
        </mxCell>
        <mxCell id="MxBAihkRJJouujoG5Gei-4" value="" style="edgeStyle=orthogonalEdgeStyle;rounded=0;orthogonalLoop=1;jettySize=auto;html=1;" parent="0uiTTxUJXEOrvFLaX4XR-1" source="MxBAihkRJJouujoG5Gei-5" target="MxBAihkRJJouujoG5Gei-14" edge="1">
          <mxGeometry relative="1" as="geometry" />
        </mxCell>
        <mxCell id="MxBAihkRJJouujoG5Gei-28" style="edgeStyle=orthogonalEdgeStyle;rounded=0;orthogonalLoop=1;jettySize=auto;html=1;entryX=0;entryY=0.5;entryDx=0;entryDy=0;" parent="0uiTTxUJXEOrvFLaX4XR-1" source="MxBAihkRJJouujoG5Gei-5" target="MxBAihkRJJouujoG5Gei-17" edge="1">
          <mxGeometry relative="1" as="geometry" />
        </mxCell>
        <mxCell id="MxBAihkRJJouujoG5Gei-31" style="edgeStyle=orthogonalEdgeStyle;rounded=0;orthogonalLoop=1;jettySize=auto;html=1;entryX=0;entryY=0.5;entryDx=0;entryDy=0;" parent="0uiTTxUJXEOrvFLaX4XR-1" source="MxBAihkRJJouujoG5Gei-5" target="MxBAihkRJJouujoG5Gei-18" edge="1">
          <mxGeometry relative="1" as="geometry" />
        </mxCell>
        <mxCell id="MxBAihkRJJouujoG5Gei-32" style="edgeStyle=orthogonalEdgeStyle;rounded=0;orthogonalLoop=1;jettySize=auto;html=1;entryX=0;entryY=0.5;entryDx=0;entryDy=0;" parent="0uiTTxUJXEOrvFLaX4XR-1" source="MxBAihkRJJouujoG5Gei-5" target="MxBAihkRJJouujoG5Gei-19" edge="1">
          <mxGeometry relative="1" as="geometry" />
        </mxCell>
        <mxCell id="MxBAihkRJJouujoG5Gei-35" style="edgeStyle=orthogonalEdgeStyle;rounded=0;orthogonalLoop=1;jettySize=auto;html=1;entryX=0;entryY=0.5;entryDx=0;entryDy=0;" parent="0uiTTxUJXEOrvFLaX4XR-1" source="MxBAihkRJJouujoG5Gei-5" target="MxBAihkRJJouujoG5Gei-16" edge="1">
          <mxGeometry relative="1" as="geometry" />
        </mxCell>
        <mxCell id="MxBAihkRJJouujoG5Gei-5" value="Calculator" style="rounded=0;whiteSpace=wrap;html=1;" parent="0uiTTxUJXEOrvFLaX4XR-1" vertex="1">
          <mxGeometry x="220" y="280" width="90" height="60" as="geometry" />
        </mxCell>
        <mxCell id="MxBAihkRJJouujoG5Gei-21" value="" style="edgeStyle=orthogonalEdgeStyle;rounded=0;orthogonalLoop=1;jettySize=auto;html=1;" parent="0uiTTxUJXEOrvFLaX4XR-1" source="MxBAihkRJJouujoG5Gei-8" target="MxBAihkRJJouujoG5Gei-20" edge="1">
          <mxGeometry relative="1" as="geometry" />
        </mxCell>
        <mxCell id="MxBAihkRJJouujoG5Gei-8" value="Triangle" style="rounded=0;whiteSpace=wrap;html=1;" parent="0uiTTxUJXEOrvFLaX4XR-1" vertex="1">
          <mxGeometry x="563" y="280" width="90" height="60" as="geometry" />
        </mxCell>
        <mxCell id="MxBAihkRJJouujoG5Gei-11" value="프로그램 실행" style="text;html=1;strokeColor=none;fillColor=none;align=center;verticalAlign=middle;whiteSpace=wrap;rounded=0;" parent="0uiTTxUJXEOrvFLaX4XR-1" vertex="1">
          <mxGeometry x="115" y="317" width="82" height="30" as="geometry" />
        </mxCell>
        <mxCell id="MxBAihkRJJouujoG5Gei-14" value="UserInterface" style="rounded=0;whiteSpace=wrap;html=1;" parent="0uiTTxUJXEOrvFLaX4XR-1" vertex="1">
          <mxGeometry x="220" y="394" width="90" height="60" as="geometry" />
        </mxCell>
        <mxCell id="MxBAihkRJJouujoG5Gei-15" value="사용자 입력 요청" style="text;html=1;strokeColor=none;fillColor=none;align=center;verticalAlign=middle;whiteSpace=wrap;rounded=0;" parent="0uiTTxUJXEOrvFLaX4XR-1" vertex="1">
          <mxGeometry x="274" y="353" width="119" height="30" as="geometry" />
        </mxCell>
        <mxCell id="MxBAihkRJJouujoG5Gei-22" style="edgeStyle=orthogonalEdgeStyle;rounded=0;orthogonalLoop=1;jettySize=auto;html=1;entryX=0;entryY=0.25;entryDx=0;entryDy=0;" parent="0uiTTxUJXEOrvFLaX4XR-1" source="MxBAihkRJJouujoG5Gei-16" target="MxBAihkRJJouujoG5Gei-20" edge="1">
          <mxGeometry relative="1" as="geometry" />
        </mxCell>
        <mxCell id="MxBAihkRJJouujoG5Gei-16" value="Line" style="rounded=0;whiteSpace=wrap;html=1;" parent="0uiTTxUJXEOrvFLaX4XR-1" vertex="1">
          <mxGeometry x="561" y="198" width="90" height="60" as="geometry" />
        </mxCell>
        <mxCell id="MxBAihkRJJouujoG5Gei-25" style="edgeStyle=orthogonalEdgeStyle;rounded=0;orthogonalLoop=1;jettySize=auto;html=1;entryX=0.5;entryY=0;entryDx=0;entryDy=0;" parent="0uiTTxUJXEOrvFLaX4XR-1" source="MxBAihkRJJouujoG5Gei-17" target="MxBAihkRJJouujoG5Gei-20" edge="1">
          <mxGeometry relative="1" as="geometry" />
        </mxCell>
        <mxCell id="MxBAihkRJJouujoG5Gei-17" value="Coordinate" style="rounded=0;whiteSpace=wrap;html=1;" parent="0uiTTxUJXEOrvFLaX4XR-1" vertex="1">
          <mxGeometry x="561" y="112" width="90" height="60" as="geometry" />
        </mxCell>
        <mxCell id="MxBAihkRJJouujoG5Gei-24" style="edgeStyle=orthogonalEdgeStyle;rounded=0;orthogonalLoop=1;jettySize=auto;html=1;entryX=0;entryY=0.75;entryDx=0;entryDy=0;" parent="0uiTTxUJXEOrvFLaX4XR-1" source="MxBAihkRJJouujoG5Gei-18" target="MxBAihkRJJouujoG5Gei-20" edge="1">
          <mxGeometry relative="1" as="geometry" />
        </mxCell>
        <mxCell id="MxBAihkRJJouujoG5Gei-18" value="Rectangle" style="rounded=0;whiteSpace=wrap;html=1;" parent="0uiTTxUJXEOrvFLaX4XR-1" vertex="1">
          <mxGeometry x="563" y="362" width="90" height="60" as="geometry" />
        </mxCell>
        <mxCell id="MxBAihkRJJouujoG5Gei-26" style="edgeStyle=orthogonalEdgeStyle;rounded=0;orthogonalLoop=1;jettySize=auto;html=1;entryX=0.5;entryY=1;entryDx=0;entryDy=0;" parent="0uiTTxUJXEOrvFLaX4XR-1" source="MxBAihkRJJouujoG5Gei-19" target="MxBAihkRJJouujoG5Gei-20" edge="1">
          <mxGeometry relative="1" as="geometry" />
        </mxCell>
        <mxCell id="MxBAihkRJJouujoG5Gei-19" value="Polygon" style="rounded=0;whiteSpace=wrap;html=1;" parent="0uiTTxUJXEOrvFLaX4XR-1" vertex="1">
          <mxGeometry x="563" y="447" width="90" height="60" as="geometry" />
        </mxCell>
        <mxCell id="MxBAihkRJJouujoG5Gei-20" value="Figure" style="rounded=0;whiteSpace=wrap;html=1;" parent="0uiTTxUJXEOrvFLaX4XR-1" vertex="1">
          <mxGeometry x="732" y="280" width="90" height="60" as="geometry" />
        </mxCell>
        <mxCell id="MxBAihkRJJouujoG5Gei-10" value="타입별 도형 생성 요청" style="text;html=1;strokeColor=none;fillColor=none;align=center;verticalAlign=middle;whiteSpace=wrap;rounded=0;" parent="0uiTTxUJXEOrvFLaX4XR-1" vertex="1">
          <mxGeometry x="301" y="280" width="146" height="30" as="geometry" />
        </mxCell>
        <mxCell id="MxBAihkRJJouujoG5Gei-36" value="상속" style="text;html=1;strokeColor=none;fillColor=none;align=center;verticalAlign=middle;whiteSpace=wrap;rounded=0;" parent="0uiTTxUJXEOrvFLaX4XR-1" vertex="1">
          <mxGeometry x="704" y="246" width="60" height="30" as="geometry" />
        </mxCell>
      </root>
    </mxGraphModel>
  </diagram>
  <diagram id="KcBvdURxO8fnFIDzQytM" name="Page-3">
    <mxGraphModel dx="965" dy="597" grid="0" gridSize="10" guides="1" tooltips="1" connect="1" arrows="1" fold="1" page="1" pageScale="1" pageWidth="1654" pageHeight="2336" math="0" shadow="0">
      <root>
        <mxCell id="mxmZoLsHTj3EUEAMASfg-0" />
        <mxCell id="mxmZoLsHTj3EUEAMASfg-1" parent="mxmZoLsHTj3EUEAMASfg-0" />
        <mxCell id="a0GeG79dDFAeTeNJmQ2B-1" value="1. 카페 프로그램 실행" style="text;html=1;strokeColor=none;fillColor=none;align=center;verticalAlign=middle;whiteSpace=wrap;rounded=0;" parent="mxmZoLsHTj3EUEAMASfg-1" vertex="1">
          <mxGeometry x="140" y="131" width="131" height="30" as="geometry" />
        </mxCell>
        <mxCell id="a0GeG79dDFAeTeNJmQ2B-11" style="edgeStyle=orthogonalEdgeStyle;rounded=0;orthogonalLoop=1;jettySize=auto;html=1;" parent="mxmZoLsHTj3EUEAMASfg-1" source="a0GeG79dDFAeTeNJmQ2B-4" edge="1">
          <mxGeometry relative="1" as="geometry">
            <mxPoint x="274.99998474121094" y="121" as="targetPoint" />
          </mxGeometry>
        </mxCell>
        <mxCell id="a0GeG79dDFAeTeNJmQ2B-4" value="Main" style="whiteSpace=wrap;html=1;" parent="mxmZoLsHTj3EUEAMASfg-1" vertex="1">
          <mxGeometry x="18" y="91" width="120" height="60" as="geometry" />
        </mxCell>
        <mxCell id="a0GeG79dDFAeTeNJmQ2B-20" style="edgeStyle=orthogonalEdgeStyle;rounded=0;orthogonalLoop=1;jettySize=auto;html=1;" parent="mxmZoLsHTj3EUEAMASfg-1" source="a0GeG79dDFAeTeNJmQ2B-12" target="a0GeG79dDFAeTeNJmQ2B-19" edge="1">
          <mxGeometry relative="1" as="geometry" />
        </mxCell>
        <mxCell id="a0GeG79dDFAeTeNJmQ2B-12" value="Cashier" style="rounded=0;whiteSpace=wrap;html=1;" parent="mxmZoLsHTj3EUEAMASfg-1" vertex="1">
          <mxGeometry x="550" y="92" width="120" height="60" as="geometry" />
        </mxCell>
        <mxCell id="a0GeG79dDFAeTeNJmQ2B-14" value="" style="edgeStyle=orthogonalEdgeStyle;rounded=0;orthogonalLoop=1;jettySize=auto;html=1;" parent="mxmZoLsHTj3EUEAMASfg-1" source="a0GeG79dDFAeTeNJmQ2B-13" target="a0GeG79dDFAeTeNJmQ2B-12" edge="1">
          <mxGeometry relative="1" as="geometry" />
        </mxCell>
        <mxCell id="a0GeG79dDFAeTeNJmQ2B-17" style="edgeStyle=orthogonalEdgeStyle;rounded=0;orthogonalLoop=1;jettySize=auto;html=1;" parent="mxmZoLsHTj3EUEAMASfg-1" source="a0GeG79dDFAeTeNJmQ2B-13" edge="1">
          <mxGeometry relative="1" as="geometry">
            <mxPoint x="338.9999999999998" y="218.0000269272748" as="targetPoint" />
          </mxGeometry>
        </mxCell>
        <mxCell id="a0GeG79dDFAeTeNJmQ2B-13" value="Cafe" style="rounded=0;whiteSpace=wrap;html=1;" parent="mxmZoLsHTj3EUEAMASfg-1" vertex="1">
          <mxGeometry x="279" y="91" width="120" height="60" as="geometry" />
        </mxCell>
        <mxCell id="a0GeG79dDFAeTeNJmQ2B-15" value="2-1. 주문 접수요청" style="text;html=1;strokeColor=none;fillColor=none;align=center;verticalAlign=middle;whiteSpace=wrap;rounded=0;" parent="mxmZoLsHTj3EUEAMASfg-1" vertex="1">
          <mxGeometry x="412" y="130" width="118" height="30" as="geometry" />
        </mxCell>
        <mxCell id="a0GeG79dDFAeTeNJmQ2B-22" style="edgeStyle=orthogonalEdgeStyle;rounded=0;orthogonalLoop=1;jettySize=auto;html=1;entryX=0;entryY=0.5;entryDx=0;entryDy=0;" parent="mxmZoLsHTj3EUEAMASfg-1" source="a0GeG79dDFAeTeNJmQ2B-16" target="a0GeG79dDFAeTeNJmQ2B-19" edge="1">
          <mxGeometry relative="1" as="geometry" />
        </mxCell>
        <mxCell id="a0GeG79dDFAeTeNJmQ2B-25" style="edgeStyle=orthogonalEdgeStyle;rounded=0;orthogonalLoop=1;jettySize=auto;html=1;entryX=0.5;entryY=0;entryDx=0;entryDy=0;" parent="mxmZoLsHTj3EUEAMASfg-1" source="a0GeG79dDFAeTeNJmQ2B-16" target="a0GeG79dDFAeTeNJmQ2B-24" edge="1">
          <mxGeometry relative="1" as="geometry" />
        </mxCell>
        <mxCell id="a0GeG79dDFAeTeNJmQ2B-29" style="edgeStyle=orthogonalEdgeStyle;rounded=0;orthogonalLoop=1;jettySize=auto;html=1;" parent="mxmZoLsHTj3EUEAMASfg-1" source="a0GeG79dDFAeTeNJmQ2B-16" edge="1">
          <mxGeometry relative="1" as="geometry">
            <mxPoint x="138.27735452090997" y="251" as="targetPoint" />
          </mxGeometry>
        </mxCell>
        <mxCell id="a0GeG79dDFAeTeNJmQ2B-16" value="Manager" style="rounded=0;whiteSpace=wrap;html=1;" parent="mxmZoLsHTj3EUEAMASfg-1" vertex="1">
          <mxGeometry x="279" y="221" width="120" height="60" as="geometry" />
        </mxCell>
        <mxCell id="a0GeG79dDFAeTeNJmQ2B-18" value="2-2. 주문 관리 요청" style="text;html=1;strokeColor=none;fillColor=none;align=center;verticalAlign=middle;whiteSpace=wrap;rounded=0;" parent="mxmZoLsHTj3EUEAMASfg-1" vertex="1">
          <mxGeometry x="351" y="170" width="113" height="30" as="geometry" />
        </mxCell>
        <mxCell id="a0GeG79dDFAeTeNJmQ2B-19" value="OrderWaitingTable" style="rounded=0;whiteSpace=wrap;html=1;" parent="mxmZoLsHTj3EUEAMASfg-1" vertex="1">
          <mxGeometry x="550" y="221" width="120" height="60" as="geometry" />
        </mxCell>
        <mxCell id="a0GeG79dDFAeTeNJmQ2B-21" value="3-1. 접수받은 주문 추가" style="text;html=1;strokeColor=none;fillColor=none;align=center;verticalAlign=middle;whiteSpace=wrap;rounded=0;" parent="mxmZoLsHTj3EUEAMASfg-1" vertex="1">
          <mxGeometry x="608" y="170" width="149" height="30" as="geometry" />
        </mxCell>
        <mxCell id="a0GeG79dDFAeTeNJmQ2B-23" value="3-2. 접수된 주문 선택" style="text;html=1;strokeColor=none;fillColor=none;align=center;verticalAlign=middle;whiteSpace=wrap;rounded=0;" parent="mxmZoLsHTj3EUEAMASfg-1" vertex="1">
          <mxGeometry x="410" y="260" width="128" height="30" as="geometry" />
        </mxCell>
        <mxCell id="a0GeG79dDFAeTeNJmQ2B-24" value="DashBoard" style="rounded=0;whiteSpace=wrap;html=1;" parent="mxmZoLsHTj3EUEAMASfg-1" vertex="1">
          <mxGeometry x="279" y="370" width="120" height="60" as="geometry" />
        </mxCell>
        <mxCell id="a0GeG79dDFAeTeNJmQ2B-26" value="5-2. 완성된 커피 현황판 출력 요청" style="text;html=1;strokeColor=none;fillColor=none;align=center;verticalAlign=middle;whiteSpace=wrap;rounded=0;" parent="mxmZoLsHTj3EUEAMASfg-1" vertex="1">
          <mxGeometry x="349" y="312" width="190" height="30" as="geometry" />
        </mxCell>
        <mxCell id="a0GeG79dDFAeTeNJmQ2B-27" value="Barista" style="rounded=0;whiteSpace=wrap;html=1;" parent="mxmZoLsHTj3EUEAMASfg-1" vertex="1">
          <mxGeometry x="16" y="225" width="120" height="60" as="geometry" />
        </mxCell>
        <mxCell id="a0GeG79dDFAeTeNJmQ2B-30" value="4-2. 커피 제작 요청" style="text;html=1;strokeColor=none;fillColor=none;align=center;verticalAlign=middle;whiteSpace=wrap;rounded=0;" parent="mxmZoLsHTj3EUEAMASfg-1" vertex="1">
          <mxGeometry x="152" y="260" width="122" height="30" as="geometry" />
        </mxCell>
      </root>
    </mxGraphModel>
  </diagram>
  <diagram id="G_lITTiu70gM_FT5BanA" name="Page-5">
    <mxGraphModel dx="428" dy="572" grid="0" gridSize="10" guides="1" tooltips="1" connect="1" arrows="1" fold="1" page="1" pageScale="1" pageWidth="827" pageHeight="1169" math="0" shadow="0">
      <root>
        <mxCell id="JXas0kaxQ8uGexIUPqvA-0" />
        <mxCell id="JXas0kaxQ8uGexIUPqvA-1" parent="JXas0kaxQ8uGexIUPqvA-0" />
        <mxCell id="P8ry40jjOi0lUsGAF0rH-0" value="" style="edgeStyle=orthogonalEdgeStyle;rounded=0;orthogonalLoop=1;jettySize=auto;html=1;" parent="JXas0kaxQ8uGexIUPqvA-1" source="P8ry40jjOi0lUsGAF0rH-1" target="P8ry40jjOi0lUsGAF0rH-8" edge="1">
          <mxGeometry relative="1" as="geometry" />
        </mxCell>
        <mxCell id="P8ry40jjOi0lUsGAF0rH-1" value="Main" style="rounded=0;whiteSpace=wrap;html=1;" parent="JXas0kaxQ8uGexIUPqvA-1" vertex="1">
          <mxGeometry x="12" y="280" width="90" height="60" as="geometry" />
        </mxCell>
        <mxCell id="P8ry40jjOi0lUsGAF0rH-2" value="" style="edgeStyle=orthogonalEdgeStyle;rounded=0;orthogonalLoop=1;jettySize=auto;html=1;" parent="JXas0kaxQ8uGexIUPqvA-1" source="P8ry40jjOi0lUsGAF0rH-8" target="P8ry40jjOi0lUsGAF0rH-10" edge="1">
          <mxGeometry relative="1" as="geometry" />
        </mxCell>
        <mxCell id="P8ry40jjOi0lUsGAF0rH-5" style="edgeStyle=orthogonalEdgeStyle;rounded=0;orthogonalLoop=1;jettySize=auto;html=1;entryX=0;entryY=0.5;entryDx=0;entryDy=0;" parent="JXas0kaxQ8uGexIUPqvA-1" source="P8ry40jjOi0lUsGAF0rH-8" target="P8ry40jjOi0lUsGAF0rH-19" edge="1">
          <mxGeometry relative="1" as="geometry" />
        </mxCell>
        <mxCell id="P8ry40jjOi0lUsGAF0rH-26" style="edgeStyle=orthogonalEdgeStyle;rounded=0;orthogonalLoop=1;jettySize=auto;html=1;entryX=0;entryY=0.5;entryDx=0;entryDy=0;" parent="JXas0kaxQ8uGexIUPqvA-1" source="P8ry40jjOi0lUsGAF0rH-8" target="P8ry40jjOi0lUsGAF0rH-15" edge="1">
          <mxGeometry relative="1" as="geometry" />
        </mxCell>
        <mxCell id="P8ry40jjOi0lUsGAF0rH-8" value="Classifier" style="rounded=0;whiteSpace=wrap;html=1;" parent="JXas0kaxQ8uGexIUPqvA-1" vertex="1">
          <mxGeometry x="220" y="280" width="90" height="60" as="geometry" />
        </mxCell>
        <mxCell id="P8ry40jjOi0lUsGAF0rH-10" value="PrimeAlpha" style="rounded=0;whiteSpace=wrap;html=1;" parent="JXas0kaxQ8uGexIUPqvA-1" vertex="1">
          <mxGeometry x="510" y="280" width="90" height="60" as="geometry" />
        </mxCell>
        <mxCell id="P8ry40jjOi0lUsGAF0rH-11" value="프로그램 실행" style="text;html=1;strokeColor=none;fillColor=none;align=center;verticalAlign=middle;whiteSpace=wrap;rounded=0;" parent="JXas0kaxQ8uGexIUPqvA-1" vertex="1">
          <mxGeometry x="115" y="317" width="82" height="30" as="geometry" />
        </mxCell>
        <mxCell id="P8ry40jjOi0lUsGAF0rH-15" value="ClassifierAlpha" style="rounded=0;whiteSpace=wrap;html=1;" parent="JXas0kaxQ8uGexIUPqvA-1" vertex="1">
          <mxGeometry x="513" y="198" width="90" height="60" as="geometry" />
        </mxCell>
        <mxCell id="P8ry40jjOi0lUsGAF0rH-19" value="SquareNumber" style="rounded=0;whiteSpace=wrap;html=1;" parent="JXas0kaxQ8uGexIUPqvA-1" vertex="1">
          <mxGeometry x="513" y="362" width="90" height="60" as="geometry" />
        </mxCell>
        <mxCell id="P8ry40jjOi0lUsGAF0rH-23" value="정수 판별 요청" style="text;html=1;strokeColor=none;fillColor=none;align=center;verticalAlign=middle;whiteSpace=wrap;rounded=0;" parent="JXas0kaxQ8uGexIUPqvA-1" vertex="1">
          <mxGeometry x="288" y="319" width="146" height="30" as="geometry" />
        </mxCell>
        <mxCell id="P8ry40jjOi0lUsGAF0rH-27" value="완전수, 과잉수, 부족수 판별" style="text;html=1;strokeColor=none;fillColor=none;align=center;verticalAlign=middle;whiteSpace=wrap;rounded=0;" parent="JXas0kaxQ8uGexIUPqvA-1" vertex="1">
          <mxGeometry x="604" y="213" width="203" height="30" as="geometry" />
        </mxCell>
        <mxCell id="P8ry40jjOi0lUsGAF0rH-28" value="소수 판별" style="text;html=1;strokeColor=none;fillColor=none;align=center;verticalAlign=middle;whiteSpace=wrap;rounded=0;" parent="JXas0kaxQ8uGexIUPqvA-1" vertex="1">
          <mxGeometry x="586" y="300" width="203" height="30" as="geometry" />
        </mxCell>
        <mxCell id="P8ry40jjOi0lUsGAF0rH-29" value="정사각수 판별" style="text;html=1;strokeColor=none;fillColor=none;align=center;verticalAlign=middle;whiteSpace=wrap;rounded=0;" parent="JXas0kaxQ8uGexIUPqvA-1" vertex="1">
          <mxGeometry x="585" y="377" width="203" height="30" as="geometry" />
        </mxCell>
      </root>
    </mxGraphModel>
  </diagram>
  <diagram id="8j0OumFtqCv9_rsIYmuP" name="Page-4">
    <mxGraphModel dx="965" dy="597" grid="0" gridSize="10" guides="1" tooltips="1" connect="1" arrows="1" fold="1" page="1" pageScale="1" pageWidth="827" pageHeight="1169" background="none" math="0" shadow="1">
      <root>
        <mxCell id="i1lmF4uudPjXsE6t047N-0" />
        <mxCell id="i1lmF4uudPjXsE6t047N-1" parent="i1lmF4uudPjXsE6t047N-0" />
        <mxCell id="i1lmF4uudPjXsE6t047N-4" value="" style="edgeStyle=orthogonalEdgeStyle;rounded=0;orthogonalLoop=1;jettySize=auto;html=1;" parent="i1lmF4uudPjXsE6t047N-1" source="i1lmF4uudPjXsE6t047N-2" target="i1lmF4uudPjXsE6t047N-3" edge="1">
          <mxGeometry relative="1" as="geometry" />
        </mxCell>
        <mxCell id="i1lmF4uudPjXsE6t047N-2" value="Main" style="rounded=0;whiteSpace=wrap;html=1;" parent="i1lmF4uudPjXsE6t047N-1" vertex="1">
          <mxGeometry x="12" y="280" width="90" height="60" as="geometry" />
        </mxCell>
        <mxCell id="i1lmF4uudPjXsE6t047N-8" value="" style="edgeStyle=orthogonalEdgeStyle;rounded=0;orthogonalLoop=1;jettySize=auto;html=1;" parent="i1lmF4uudPjXsE6t047N-1" source="i1lmF4uudPjXsE6t047N-3" target="i1lmF4uudPjXsE6t047N-7" edge="1">
          <mxGeometry relative="1" as="geometry" />
        </mxCell>
        <mxCell id="i1lmF4uudPjXsE6t047N-14" value="" style="edgeStyle=orthogonalEdgeStyle;rounded=0;orthogonalLoop=1;jettySize=auto;html=1;" parent="i1lmF4uudPjXsE6t047N-1" source="i1lmF4uudPjXsE6t047N-3" edge="1">
          <mxGeometry relative="1" as="geometry">
            <mxPoint x="266" y="224" as="targetPoint" />
          </mxGeometry>
        </mxCell>
        <mxCell id="i1lmF4uudPjXsE6t047N-19" value="" style="edgeStyle=orthogonalEdgeStyle;rounded=0;orthogonalLoop=1;jettySize=auto;html=1;" parent="i1lmF4uudPjXsE6t047N-1" source="i1lmF4uudPjXsE6t047N-3" target="i1lmF4uudPjXsE6t047N-18" edge="1">
          <mxGeometry relative="1" as="geometry" />
        </mxCell>
        <mxCell id="i1lmF4uudPjXsE6t047N-3" value="VideoEditor" style="rounded=0;whiteSpace=wrap;html=1;" parent="i1lmF4uudPjXsE6t047N-1" vertex="1">
          <mxGeometry x="221" y="280" width="90" height="60" as="geometry" />
        </mxCell>
        <mxCell id="i1lmF4uudPjXsE6t047N-16" value="" style="edgeStyle=orthogonalEdgeStyle;rounded=0;orthogonalLoop=1;jettySize=auto;html=1;" parent="i1lmF4uudPjXsE6t047N-1" target="i1lmF4uudPjXsE6t047N-15" edge="1">
          <mxGeometry relative="1" as="geometry">
            <mxPoint x="266" y="164" as="sourcePoint" />
          </mxGeometry>
        </mxCell>
        <mxCell id="i1lmF4uudPjXsE6t047N-5" value="VideoManagement" style="rounded=0;whiteSpace=wrap;html=1;" parent="i1lmF4uudPjXsE6t047N-1" vertex="1">
          <mxGeometry x="207" y="164" width="120" height="60" as="geometry" />
        </mxCell>
        <mxCell id="i1lmF4uudPjXsE6t047N-7" value="VideoEditTool" style="rounded=0;whiteSpace=wrap;html=1;" parent="i1lmF4uudPjXsE6t047N-1" vertex="1">
          <mxGeometry x="474" y="280" width="90" height="60" as="geometry" />
        </mxCell>
        <mxCell id="i1lmF4uudPjXsE6t047N-11" value="2. 편집용 영상 정보 목록 요청" style="text;html=1;strokeColor=none;fillColor=none;align=center;verticalAlign=middle;whiteSpace=wrap;rounded=0;" parent="i1lmF4uudPjXsE6t047N-1" vertex="1">
          <mxGeometry x="274" y="239" width="226" height="30" as="geometry" />
        </mxCell>
        <mxCell id="i1lmF4uudPjXsE6t047N-12" value="5. 영상 정보 편집 요청" style="text;html=1;strokeColor=none;fillColor=none;align=center;verticalAlign=middle;whiteSpace=wrap;rounded=0;" parent="i1lmF4uudPjXsE6t047N-1" vertex="1">
          <mxGeometry x="326" y="318" width="135" height="30" as="geometry" />
        </mxCell>
        <mxCell id="i1lmF4uudPjXsE6t047N-13" value="1. 프로그램 실행" style="text;html=1;strokeColor=none;fillColor=none;align=center;verticalAlign=middle;whiteSpace=wrap;rounded=0;" parent="i1lmF4uudPjXsE6t047N-1" vertex="1">
          <mxGeometry x="118" y="318" width="91" height="30" as="geometry" />
        </mxCell>
        <mxCell id="i1lmF4uudPjXsE6t047N-15" value="VideoData" style="rounded=0;whiteSpace=wrap;html=1;" parent="i1lmF4uudPjXsE6t047N-1" vertex="1">
          <mxGeometry x="221" y="58" width="90" height="60" as="geometry" />
        </mxCell>
        <mxCell id="i1lmF4uudPjXsE6t047N-17" value="3. 영상 정보 요청" style="text;html=1;strokeColor=none;fillColor=none;align=center;verticalAlign=middle;whiteSpace=wrap;rounded=0;" parent="i1lmF4uudPjXsE6t047N-1" vertex="1">
          <mxGeometry x="270" y="126" width="167" height="30" as="geometry" />
        </mxCell>
        <mxCell id="i1lmF4uudPjXsE6t047N-18" value="VideoData" style="rounded=0;whiteSpace=wrap;html=1;" parent="i1lmF4uudPjXsE6t047N-1" vertex="1">
          <mxGeometry x="221" y="394" width="90" height="60" as="geometry" />
        </mxCell>
        <mxCell id="i1lmF4uudPjXsE6t047N-20" value="4. 영상 정보 헤드 요청" style="text;html=1;strokeColor=none;fillColor=none;align=center;verticalAlign=middle;whiteSpace=wrap;rounded=0;" parent="i1lmF4uudPjXsE6t047N-1" vertex="1">
          <mxGeometry x="271" y="353" width="159" height="30" as="geometry" />
        </mxCell>
      </root>
    </mxGraphModel>
  </diagram>
  <diagram id="6CKtj-sQooy528v4286s" name="Page-6">
    <mxGraphModel dx="1102" dy="582" grid="0" gridSize="10" guides="1" tooltips="1" connect="1" arrows="1" fold="1" page="1" pageScale="1" pageWidth="827" pageHeight="1169" math="0" shadow="0">
      <root>
        <mxCell id="8n4VRl3Ia02xlfdtkYwT-0" />
        <mxCell id="8n4VRl3Ia02xlfdtkYwT-1" parent="8n4VRl3Ia02xlfdtkYwT-0" />
        <mxCell id="GfUJLlzdXIJOqFEdDikS-0" value="" style="edgeStyle=orthogonalEdgeStyle;rounded=0;orthogonalLoop=1;jettySize=auto;html=1;" parent="8n4VRl3Ia02xlfdtkYwT-1" source="GfUJLlzdXIJOqFEdDikS-1" target="GfUJLlzdXIJOqFEdDikS-5" edge="1">
          <mxGeometry relative="1" as="geometry" />
        </mxCell>
        <mxCell id="GfUJLlzdXIJOqFEdDikS-1" value="Main" style="rounded=0;whiteSpace=wrap;html=1;" parent="8n4VRl3Ia02xlfdtkYwT-1" vertex="1">
          <mxGeometry x="12" y="280" width="90" height="60" as="geometry" />
        </mxCell>
        <mxCell id="GfUJLlzdXIJOqFEdDikS-2" value="" style="edgeStyle=orthogonalEdgeStyle;rounded=0;orthogonalLoop=1;jettySize=auto;html=1;" parent="8n4VRl3Ia02xlfdtkYwT-1" source="GfUJLlzdXIJOqFEdDikS-5" target="GfUJLlzdXIJOqFEdDikS-8" edge="1">
          <mxGeometry relative="1" as="geometry" />
        </mxCell>
        <mxCell id="GfUJLlzdXIJOqFEdDikS-3" value="" style="edgeStyle=orthogonalEdgeStyle;rounded=0;orthogonalLoop=1;jettySize=auto;html=1;" parent="8n4VRl3Ia02xlfdtkYwT-1" source="GfUJLlzdXIJOqFEdDikS-5" edge="1">
          <mxGeometry relative="1" as="geometry">
            <mxPoint x="266" y="224" as="targetPoint" />
          </mxGeometry>
        </mxCell>
        <mxCell id="GfUJLlzdXIJOqFEdDikS-4" value="" style="edgeStyle=orthogonalEdgeStyle;rounded=0;orthogonalLoop=1;jettySize=auto;html=1;" parent="8n4VRl3Ia02xlfdtkYwT-1" source="GfUJLlzdXIJOqFEdDikS-5" target="GfUJLlzdXIJOqFEdDikS-14" edge="1">
          <mxGeometry relative="1" as="geometry" />
        </mxCell>
        <mxCell id="GfUJLlzdXIJOqFEdDikS-5" value="LottoGame" style="rounded=0;whiteSpace=wrap;html=1;" parent="8n4VRl3Ia02xlfdtkYwT-1" vertex="1">
          <mxGeometry x="221" y="280" width="90" height="60" as="geometry" />
        </mxCell>
        <mxCell id="GfUJLlzdXIJOqFEdDikS-6" value="" style="edgeStyle=orthogonalEdgeStyle;rounded=0;orthogonalLoop=1;jettySize=auto;html=1;" parent="8n4VRl3Ia02xlfdtkYwT-1" target="GfUJLlzdXIJOqFEdDikS-12" edge="1">
          <mxGeometry relative="1" as="geometry">
            <mxPoint x="266" y="164" as="sourcePoint" />
          </mxGeometry>
        </mxCell>
        <mxCell id="GfUJLlzdXIJOqFEdDikS-7" value="UserInterface" style="rounded=0;whiteSpace=wrap;html=1;" parent="8n4VRl3Ia02xlfdtkYwT-1" vertex="1">
          <mxGeometry x="207" y="164" width="120" height="60" as="geometry" />
        </mxCell>
        <mxCell id="GfUJLlzdXIJOqFEdDikS-8" value="LottoMaker" style="rounded=0;whiteSpace=wrap;html=1;" parent="8n4VRl3Ia02xlfdtkYwT-1" vertex="1">
          <mxGeometry x="522" y="280" width="113" height="60" as="geometry" />
        </mxCell>
        <mxCell id="GfUJLlzdXIJOqFEdDikS-9" value="2. 사용자 입력 요청" style="text;html=1;strokeColor=none;fillColor=none;align=center;verticalAlign=middle;whiteSpace=wrap;rounded=0;" parent="8n4VRl3Ia02xlfdtkYwT-1" vertex="1">
          <mxGeometry x="274" y="239" width="151" height="30" as="geometry" />
        </mxCell>
        <mxCell id="GfUJLlzdXIJOqFEdDikS-10" value="4. 수동/자동 로또 번호 생성 요청" style="text;html=1;strokeColor=none;fillColor=none;align=center;verticalAlign=middle;whiteSpace=wrap;rounded=0;" parent="8n4VRl3Ia02xlfdtkYwT-1" vertex="1">
          <mxGeometry x="320" y="318" width="185" height="30" as="geometry" />
        </mxCell>
        <mxCell id="GfUJLlzdXIJOqFEdDikS-11" value="1. 프로그램 실행" style="text;html=1;strokeColor=none;fillColor=none;align=center;verticalAlign=middle;whiteSpace=wrap;rounded=0;" parent="8n4VRl3Ia02xlfdtkYwT-1" vertex="1">
          <mxGeometry x="118" y="318" width="91" height="30" as="geometry" />
        </mxCell>
        <mxCell id="GfUJLlzdXIJOqFEdDikS-12" value="Validation" style="rounded=0;whiteSpace=wrap;html=1;" parent="8n4VRl3Ia02xlfdtkYwT-1" vertex="1">
          <mxGeometry x="221" y="58" width="90" height="60" as="geometry" />
        </mxCell>
        <mxCell id="GfUJLlzdXIJOqFEdDikS-13" value="3. 사용자 입력 검증 요청" style="text;html=1;strokeColor=none;fillColor=none;align=center;verticalAlign=middle;whiteSpace=wrap;rounded=0;" parent="8n4VRl3Ia02xlfdtkYwT-1" vertex="1">
          <mxGeometry x="270" y="126" width="167" height="30" as="geometry" />
        </mxCell>
        <mxCell id="GfUJLlzdXIJOqFEdDikS-14" value="WinningStatistic" style="rounded=0;whiteSpace=wrap;html=1;" parent="8n4VRl3Ia02xlfdtkYwT-1" vertex="1">
          <mxGeometry x="203" y="394" width="127" height="60" as="geometry" />
        </mxCell>
        <mxCell id="GfUJLlzdXIJOqFEdDikS-15" value="5. 당첨 통계 산출 요청" style="text;html=1;strokeColor=none;fillColor=none;align=center;verticalAlign=middle;whiteSpace=wrap;rounded=0;" parent="8n4VRl3Ia02xlfdtkYwT-1" vertex="1">
          <mxGeometry x="271" y="353" width="159" height="30" as="geometry" />
        </mxCell>
      </root>
    </mxGraphModel>
  </diagram>
  <diagram id="oTKEJFL3j3BJ56KE_ass" name="Page-7">
    <mxGraphModel dx="1102" dy="582" grid="0" gridSize="10" guides="1" tooltips="1" connect="1" arrows="1" fold="1" page="1" pageScale="1" pageWidth="1169" pageHeight="1654" math="0" shadow="0">
      <root>
        <mxCell id="14hND0g7-s-0zo7RzuDp-0" />
        <mxCell id="14hND0g7-s-0zo7RzuDp-1" parent="14hND0g7-s-0zo7RzuDp-0" />
        <mxCell id="14hND0g7-s-0zo7RzuDp-2" value="" style="edgeStyle=orthogonalEdgeStyle;rounded=0;orthogonalLoop=1;jettySize=auto;html=1;" parent="14hND0g7-s-0zo7RzuDp-1" source="14hND0g7-s-0zo7RzuDp-3" target="14hND0g7-s-0zo7RzuDp-7" edge="1">
          <mxGeometry relative="1" as="geometry" />
        </mxCell>
        <mxCell id="14hND0g7-s-0zo7RzuDp-3" value="Main" style="rounded=0;whiteSpace=wrap;html=1;" parent="14hND0g7-s-0zo7RzuDp-1" vertex="1">
          <mxGeometry x="12" y="280" width="90" height="60" as="geometry" />
        </mxCell>
        <mxCell id="14hND0g7-s-0zo7RzuDp-19" value="" style="edgeStyle=orthogonalEdgeStyle;rounded=0;orthogonalLoop=1;jettySize=auto;html=1;" parent="14hND0g7-s-0zo7RzuDp-1" source="14hND0g7-s-0zo7RzuDp-7" target="14hND0g7-s-0zo7RzuDp-10" edge="1">
          <mxGeometry relative="1" as="geometry" />
        </mxCell>
        <mxCell id="14hND0g7-s-0zo7RzuDp-7" value="OperatingSystem" style="rounded=0;whiteSpace=wrap;html=1;" parent="14hND0g7-s-0zo7RzuDp-1" vertex="1">
          <mxGeometry x="221" y="280" width="117" height="60" as="geometry" />
        </mxCell>
        <mxCell id="14hND0g7-s-0zo7RzuDp-22" value="" style="edgeStyle=orthogonalEdgeStyle;rounded=0;orthogonalLoop=1;jettySize=auto;html=1;" parent="14hND0g7-s-0zo7RzuDp-1" source="14hND0g7-s-0zo7RzuDp-10" target="14hND0g7-s-0zo7RzuDp-18" edge="1">
          <mxGeometry relative="1" as="geometry" />
        </mxCell>
        <mxCell id="14hND0g7-s-0zo7RzuDp-10" value="ProcessScheduler" style="rounded=0;whiteSpace=wrap;html=1;" parent="14hND0g7-s-0zo7RzuDp-1" vertex="1">
          <mxGeometry x="500" y="280" width="113" height="60" as="geometry" />
        </mxCell>
        <mxCell id="14hND0g7-s-0zo7RzuDp-13" value="1. 프로그램 실행" style="text;html=1;strokeColor=none;fillColor=none;align=center;verticalAlign=middle;whiteSpace=wrap;rounded=0;" parent="14hND0g7-s-0zo7RzuDp-1" vertex="1">
          <mxGeometry x="113" y="318" width="91" height="30" as="geometry" />
        </mxCell>
        <mxCell id="14hND0g7-s-0zo7RzuDp-18" value="ThreadScheduler" style="rounded=0;whiteSpace=wrap;html=1;" parent="14hND0g7-s-0zo7RzuDp-1" vertex="1">
          <mxGeometry x="762" y="280" width="113" height="60" as="geometry" />
        </mxCell>
        <mxCell id="14hND0g7-s-0zo7RzuDp-21" value="2. 프로세스 스케줄링 요청" style="text;html=1;strokeColor=none;fillColor=none;align=center;verticalAlign=middle;whiteSpace=wrap;rounded=0;" parent="14hND0g7-s-0zo7RzuDp-1" vertex="1">
          <mxGeometry x="343" y="318" width="154" height="30" as="geometry" />
        </mxCell>
        <mxCell id="14hND0g7-s-0zo7RzuDp-23" value="3. 스레드 스케줄링 요청" style="text;html=1;strokeColor=none;fillColor=none;align=center;verticalAlign=middle;whiteSpace=wrap;rounded=0;" parent="14hND0g7-s-0zo7RzuDp-1" vertex="1">
          <mxGeometry x="610" y="314" width="154" height="30" as="geometry" />
        </mxCell>
      </root>
    </mxGraphModel>
  </diagram>
  <diagram id="_EDKZ-AGnnrM7A7-AbAk" name="Page-9">
    <mxGraphModel dx="1102" dy="582" grid="0" gridSize="10" guides="1" tooltips="1" connect="1" arrows="1" fold="1" page="1" pageScale="1" pageWidth="1654" pageHeight="2336" math="0" shadow="0">
      <root>
        <mxCell id="C0PRYCzrUQwBIH0fM7Sh-0" />
        <mxCell id="C0PRYCzrUQwBIH0fM7Sh-1" parent="C0PRYCzrUQwBIH0fM7Sh-0" />
        <mxCell id="7vzFLcI-eoGCfx9iXs90-5" style="edgeStyle=orthogonalEdgeStyle;rounded=0;orthogonalLoop=1;jettySize=auto;html=1;" parent="C0PRYCzrUQwBIH0fM7Sh-1" source="C0PRYCzrUQwBIH0fM7Sh-3" target="7vzFLcI-eoGCfx9iXs90-3" edge="1">
          <mxGeometry relative="1" as="geometry" />
        </mxCell>
        <mxCell id="C0PRYCzrUQwBIH0fM7Sh-3" value="PcRoom" style="rounded=0;whiteSpace=wrap;html=1;" parent="C0PRYCzrUQwBIH0fM7Sh-1" vertex="1">
          <mxGeometry x="366" y="225" width="120" height="60" as="geometry" />
        </mxCell>
        <mxCell id="C0PRYCzrUQwBIH0fM7Sh-7" value="1. PC방 관리자 프로그램 실행" style="text;html=1;strokeColor=none;fillColor=none;align=center;verticalAlign=middle;whiteSpace=wrap;rounded=0;" parent="C0PRYCzrUQwBIH0fM7Sh-1" vertex="1">
          <mxGeometry x="183" y="261" width="178" height="30" as="geometry" />
        </mxCell>
        <mxCell id="C0PRYCzrUQwBIH0fM7Sh-9" value="2. 데이터 조회/처리 요청" style="text;html=1;strokeColor=none;fillColor=none;align=center;verticalAlign=middle;whiteSpace=wrap;rounded=0;" parent="C0PRYCzrUQwBIH0fM7Sh-1" vertex="1">
          <mxGeometry x="497" y="263" width="151" height="30" as="geometry" />
        </mxCell>
        <mxCell id="7vzFLcI-eoGCfx9iXs90-4" style="edgeStyle=orthogonalEdgeStyle;rounded=0;orthogonalLoop=1;jettySize=auto;html=1;entryX=0;entryY=0.5;entryDx=0;entryDy=0;" parent="C0PRYCzrUQwBIH0fM7Sh-1" source="7vzFLcI-eoGCfx9iXs90-2" target="C0PRYCzrUQwBIH0fM7Sh-3" edge="1">
          <mxGeometry relative="1" as="geometry" />
        </mxCell>
        <mxCell id="7vzFLcI-eoGCfx9iXs90-2" value="Main" style="rounded=0;whiteSpace=wrap;html=1;" parent="C0PRYCzrUQwBIH0fM7Sh-1" vertex="1">
          <mxGeometry x="60" y="225" width="120" height="60" as="geometry" />
        </mxCell>
        <mxCell id="7vzFLcI-eoGCfx9iXs90-3" value="Dao" style="rounded=0;whiteSpace=wrap;html=1;" parent="C0PRYCzrUQwBIH0fM7Sh-1" vertex="1">
          <mxGeometry x="667" y="225" width="120" height="60" as="geometry" />
        </mxCell>
      </root>
    </mxGraphModel>
  </diagram>
  <diagram id="NyplK4zoV6I_Bn3zI4m4" name="Page-10">
    <mxGraphModel dx="965" dy="597" grid="0" gridSize="10" guides="1" tooltips="1" connect="1" arrows="1" fold="1" page="1" pageScale="1" pageWidth="1654" pageHeight="2336" math="0" shadow="0">
      <root>
        <mxCell id="0" />
        <mxCell id="1" parent="0" />
        <mxCell id="OEReT9IXOA0fKQFKTsdl-4" style="edgeStyle=orthogonalEdgeStyle;rounded=0;orthogonalLoop=1;jettySize=auto;html=1;" parent="1" source="OEReT9IXOA0fKQFKTsdl-1" target="OEReT9IXOA0fKQFKTsdl-2" edge="1">
          <mxGeometry relative="1" as="geometry" />
        </mxCell>
        <mxCell id="OEReT9IXOA0fKQFKTsdl-1" value="Main" style="rounded=0;whiteSpace=wrap;html=1;" parent="1" vertex="1">
          <mxGeometry x="107" y="262" width="120" height="60" as="geometry" />
        </mxCell>
        <mxCell id="OEReT9IXOA0fKQFKTsdl-7" style="edgeStyle=orthogonalEdgeStyle;rounded=0;orthogonalLoop=1;jettySize=auto;html=1;entryX=0.001;entryY=0.393;entryDx=0;entryDy=0;entryPerimeter=0;" parent="1" source="OEReT9IXOA0fKQFKTsdl-2" target="OEReT9IXOA0fKQFKTsdl-5" edge="1">
          <mxGeometry relative="1" as="geometry" />
        </mxCell>
        <mxCell id="OEReT9IXOA0fKQFKTsdl-8" style="edgeStyle=orthogonalEdgeStyle;rounded=0;orthogonalLoop=1;jettySize=auto;html=1;entryX=0;entryY=0.5;entryDx=0;entryDy=0;" parent="1" source="OEReT9IXOA0fKQFKTsdl-2" target="OEReT9IXOA0fKQFKTsdl-6" edge="1">
          <mxGeometry relative="1" as="geometry" />
        </mxCell>
        <mxCell id="OEReT9IXOA0fKQFKTsdl-2" value="WebBrowser" style="rounded=0;whiteSpace=wrap;html=1;" parent="1" vertex="1">
          <mxGeometry x="415" y="262" width="120" height="60" as="geometry" />
        </mxCell>
        <mxCell id="OEReT9IXOA0fKQFKTsdl-3" value="1. HTTP Client 프로그램 실행" style="text;html=1;strokeColor=none;fillColor=none;align=center;verticalAlign=middle;whiteSpace=wrap;rounded=0;" parent="1" vertex="1">
          <mxGeometry x="227" y="297" width="183" height="30" as="geometry" />
        </mxCell>
        <mxCell id="OEReT9IXOA0fKQFKTsdl-5" value="HttpRequest" style="rounded=0;whiteSpace=wrap;html=1;" parent="1" vertex="1">
          <mxGeometry x="640" y="202" width="120" height="60" as="geometry" />
        </mxCell>
        <mxCell id="OEReT9IXOA0fKQFKTsdl-6" value="HttpResponse" style="rounded=0;whiteSpace=wrap;html=1;" parent="1" vertex="1">
          <mxGeometry x="640" y="322" width="120" height="60" as="geometry" />
        </mxCell>
        <mxCell id="OEReT9IXOA0fKQFKTsdl-9" value="2. HttpRequest 객체 생성 요청" style="text;html=1;strokeColor=none;fillColor=none;align=center;verticalAlign=middle;whiteSpace=wrap;rounded=0;" parent="1" vertex="1">
          <mxGeometry x="449" y="187" width="183" height="30" as="geometry" />
        </mxCell>
        <mxCell id="OEReT9IXOA0fKQFKTsdl-10" value="3. HttpResponse 객체 생성 요청" style="text;html=1;strokeColor=none;fillColor=none;align=center;verticalAlign=middle;whiteSpace=wrap;rounded=0;" parent="1" vertex="1">
          <mxGeometry x="449" y="360" width="183" height="30" as="geometry" />
        </mxCell>
      </root>
    </mxGraphModel>
  </diagram>
  <diagram id="iHRfHv8UGiml6rA9i-VE" name="Page-11">
    <mxGraphModel dx="965" dy="2933" grid="0" gridSize="10" guides="1" tooltips="1" connect="1" arrows="1" fold="1" page="1" pageScale="1" pageWidth="1654" pageHeight="2336" math="0" shadow="0">
      <root>
        <mxCell id="0" />
        <mxCell id="1" parent="0" />
        <mxCell id="pD4wc3uBX7NRLqyCKrwj-1" value="category" style="swimlane;fontStyle=0;childLayout=stackLayout;horizontal=1;startSize=30;horizontalStack=0;resizeParent=1;resizeParentMax=0;resizeLast=0;collapsible=1;marginBottom=0;" parent="1" vertex="1">
          <mxGeometry x="363" y="-792" width="187" height="120" as="geometry" />
        </mxCell>
        <mxCell id="pD4wc3uBX7NRLqyCKrwj-2" value="������ (PK) id INT" style="text;strokeColor=none;fillColor=none;align=left;verticalAlign=middle;spacingLeft=4;spacingRight=4;overflow=hidden;points=[[0,0.5],[1,0.5]];portConstraint=eastwest;rotatable=0;" parent="pD4wc3uBX7NRLqyCKrwj-1" vertex="1">
          <mxGeometry y="30" width="187" height="30" as="geometry" />
        </mxCell>
        <mxCell id="En_GcAgmOY5F2COBi5RJ-4" value="������ (FK) user_id VARCHAR(64)" style="text;strokeColor=none;fillColor=none;align=left;verticalAlign=middle;spacingLeft=4;spacingRight=4;overflow=hidden;points=[[0,0.5],[1,0.5]];portConstraint=eastwest;rotatable=0;" parent="pD4wc3uBX7NRLqyCKrwj-1" vertex="1">
          <mxGeometry y="60" width="187" height="30" as="geometry" />
        </mxCell>
        <mxCell id="pD4wc3uBX7NRLqyCKrwj-3" value="name VARCHAR(64)" style="text;strokeColor=none;fillColor=none;align=left;verticalAlign=middle;spacingLeft=4;spacingRight=4;overflow=hidden;points=[[0,0.5],[1,0.5]];portConstraint=eastwest;rotatable=0;" parent="pD4wc3uBX7NRLqyCKrwj-1" vertex="1">
          <mxGeometry y="90" width="187" height="30" as="geometry" />
        </mxCell>
        <mxCell id="pD4wc3uBX7NRLqyCKrwj-5" value="work" style="swimlane;fontStyle=0;childLayout=stackLayout;horizontal=1;startSize=30;horizontalStack=0;resizeParent=1;resizeParentMax=0;resizeLast=0;collapsible=1;marginBottom=0;" parent="1" vertex="1">
          <mxGeometry x="659" y="-822" width="185" height="210" as="geometry">
            <mxRectangle x="415" y="-819" width="52" height="30" as="alternateBounds" />
          </mxGeometry>
        </mxCell>
        <mxCell id="pD4wc3uBX7NRLqyCKrwj-6" value="������ (PK) id INT" style="text;strokeColor=none;fillColor=none;align=left;verticalAlign=middle;spacingLeft=4;spacingRight=4;overflow=hidden;points=[[0,0.5],[1,0.5]];portConstraint=eastwest;rotatable=0;" parent="pD4wc3uBX7NRLqyCKrwj-5" vertex="1">
          <mxGeometry y="30" width="185" height="30" as="geometry" />
        </mxCell>
        <mxCell id="pD4wc3uBX7NRLqyCKrwj-7" value="������ (FK) category_id INT" style="text;strokeColor=none;fillColor=none;align=left;verticalAlign=middle;spacingLeft=4;spacingRight=4;overflow=hidden;points=[[0,0.5],[1,0.5]];portConstraint=eastwest;rotatable=0;" parent="pD4wc3uBX7NRLqyCKrwj-5" vertex="1">
          <mxGeometry y="60" width="185" height="30" as="geometry" />
        </mxCell>
        <mxCell id="BBww2P8DhDifccwjUvWb-1" value="title VARCHAR(255)" style="text;strokeColor=none;fillColor=none;align=left;verticalAlign=middle;spacingLeft=4;spacingRight=4;overflow=hidden;points=[[0,0.5],[1,0.5]];portConstraint=eastwest;rotatable=0;" parent="pD4wc3uBX7NRLqyCKrwj-5" vertex="1">
          <mxGeometry y="90" width="185" height="30" as="geometry" />
        </mxCell>
        <mxCell id="BBww2P8DhDifccwjUvWb-2" value="content VARCHAR(255)" style="text;strokeColor=none;fillColor=none;align=left;verticalAlign=middle;spacingLeft=4;spacingRight=4;overflow=hidden;points=[[0,0.5],[1,0.5]];portConstraint=eastwest;rotatable=0;" parent="pD4wc3uBX7NRLqyCKrwj-5" vertex="1">
          <mxGeometry y="120" width="185" height="30" as="geometry" />
        </mxCell>
        <mxCell id="BBww2P8DhDifccwjUvWb-3" value="delete_flag TINYINT(1)" style="text;strokeColor=none;fillColor=none;align=left;verticalAlign=middle;spacingLeft=4;spacingRight=4;overflow=hidden;points=[[0,0.5],[1,0.5]];portConstraint=eastwest;rotatable=0;" parent="pD4wc3uBX7NRLqyCKrwj-5" vertex="1">
          <mxGeometry y="150" width="185" height="30" as="geometry" />
        </mxCell>
        <mxCell id="BBww2P8DhDifccwjUvWb-4" value="created_datetime TIMESTAMP" style="text;strokeColor=none;fillColor=none;align=left;verticalAlign=middle;spacingLeft=4;spacingRight=4;overflow=hidden;points=[[0,0.5],[1,0.5]];portConstraint=eastwest;rotatable=0;" parent="pD4wc3uBX7NRLqyCKrwj-5" vertex="1">
          <mxGeometry y="180" width="185" height="30" as="geometry" />
        </mxCell>
        <mxCell id="BBww2P8DhDifccwjUvWb-6" value="user_log" style="swimlane;fontStyle=0;childLayout=stackLayout;horizontal=1;startSize=30;horizontalStack=0;resizeParent=1;resizeParentMax=0;resizeLast=0;collapsible=1;marginBottom=0;" parent="1" vertex="1">
          <mxGeometry x="363" y="-553" width="187" height="240" as="geometry">
            <mxRectangle x="415" y="-819" width="52" height="30" as="alternateBounds" />
          </mxGeometry>
        </mxCell>
        <mxCell id="BBww2P8DhDifccwjUvWb-7" value="������ (PK) id INT" style="text;strokeColor=none;fillColor=none;align=left;verticalAlign=middle;spacingLeft=4;spacingRight=4;overflow=hidden;points=[[0,0.5],[1,0.5]];portConstraint=eastwest;rotatable=0;" parent="BBww2P8DhDifccwjUvWb-6" vertex="1">
          <mxGeometry y="30" width="187" height="30" as="geometry" />
        </mxCell>
        <mxCell id="BBww2P8DhDifccwjUvWb-8" value="������ (FK) user_id VARCHAR(64)" style="text;strokeColor=none;fillColor=none;align=left;verticalAlign=middle;spacingLeft=4;spacingRight=4;overflow=hidden;points=[[0,0.5],[1,0.5]];portConstraint=eastwest;rotatable=0;" parent="BBww2P8DhDifccwjUvWb-6" vertex="1">
          <mxGeometry y="60" width="187" height="30" as="geometry" />
        </mxCell>
        <mxCell id="qFvdVQgW3yLnntvGRlcR-2" value="title VARCHAR(255)" style="text;strokeColor=none;fillColor=none;align=left;verticalAlign=middle;spacingLeft=4;spacingRight=4;overflow=hidden;points=[[0,0.5],[1,0.5]];portConstraint=eastwest;rotatable=0;" parent="BBww2P8DhDifccwjUvWb-6" vertex="1">
          <mxGeometry y="90" width="187" height="30" as="geometry" />
        </mxCell>
        <mxCell id="BBww2P8DhDifccwjUvWb-9" value="action VARCHAR(32)" style="text;strokeColor=none;fillColor=none;align=left;verticalAlign=middle;spacingLeft=4;spacingRight=4;overflow=hidden;points=[[0,0.5],[1,0.5]];portConstraint=eastwest;rotatable=0;" parent="BBww2P8DhDifccwjUvWb-6" vertex="1">
          <mxGeometry y="120" width="187" height="30" as="geometry" />
        </mxCell>
        <mxCell id="BBww2P8DhDifccwjUvWb-10" value="previous_column VARCHAR(64)" style="text;strokeColor=none;fillColor=none;align=left;verticalAlign=middle;spacingLeft=4;spacingRight=4;overflow=hidden;points=[[0,0.5],[1,0.5]];portConstraint=eastwest;rotatable=0;" parent="BBww2P8DhDifccwjUvWb-6" vertex="1">
          <mxGeometry y="150" width="187" height="30" as="geometry" />
        </mxCell>
        <mxCell id="BBww2P8DhDifccwjUvWb-11" value="changed_column VARCHAR(64)" style="text;strokeColor=none;fillColor=none;align=left;verticalAlign=middle;spacingLeft=4;spacingRight=4;overflow=hidden;points=[[0,0.5],[1,0.5]];portConstraint=eastwest;rotatable=0;" parent="BBww2P8DhDifccwjUvWb-6" vertex="1">
          <mxGeometry y="180" width="187" height="30" as="geometry" />
        </mxCell>
        <mxCell id="BBww2P8DhDifccwjUvWb-12" value="updated_datetime TIMESTAMP" style="text;strokeColor=none;fillColor=none;align=left;verticalAlign=middle;spacingLeft=4;spacingRight=4;overflow=hidden;points=[[0,0.5],[1,0.5]];portConstraint=eastwest;rotatable=0;" parent="BBww2P8DhDifccwjUvWb-6" vertex="1">
          <mxGeometry y="210" width="187" height="30" as="geometry" />
        </mxCell>
        <mxCell id="BBww2P8DhDifccwjUvWb-15" style="edgeStyle=orthogonalEdgeStyle;rounded=0;orthogonalLoop=1;jettySize=auto;html=1;entryX=1;entryY=0.5;entryDx=0;entryDy=0;dashed=1;startArrow=ERoneToMany;startFill=0;endArrow=ERone;endFill=0;" parent="1" source="pD4wc3uBX7NRLqyCKrwj-7" target="pD4wc3uBX7NRLqyCKrwj-2" edge="1">
          <mxGeometry relative="1" as="geometry" />
        </mxCell>
        <mxCell id="sgqy6lX0YCzwrD3tJaMA-1" value="user" style="swimlane;fontStyle=0;childLayout=stackLayout;horizontal=1;startSize=30;horizontalStack=0;resizeParent=1;resizeParentMax=0;resizeLast=0;collapsible=1;marginBottom=0;" parent="1" vertex="1">
          <mxGeometry x="67" y="-663" width="183" height="150" as="geometry" />
        </mxCell>
        <mxCell id="sgqy6lX0YCzwrD3tJaMA-2" value="������ (PK) user_id  VARCHAR(64)" style="text;strokeColor=none;fillColor=none;align=left;verticalAlign=middle;spacingLeft=4;spacingRight=4;overflow=hidden;points=[[0,0.5],[1,0.5]];portConstraint=eastwest;rotatable=0;" parent="sgqy6lX0YCzwrD3tJaMA-1" vertex="1">
          <mxGeometry y="30" width="183" height="30" as="geometry" />
        </mxCell>
        <mxCell id="sgqy6lX0YCzwrD3tJaMA-3" value="password VARCHAR(64)" style="text;strokeColor=none;fillColor=none;align=left;verticalAlign=middle;spacingLeft=4;spacingRight=4;overflow=hidden;points=[[0,0.5],[1,0.5]];portConstraint=eastwest;rotatable=0;" parent="sgqy6lX0YCzwrD3tJaMA-1" vertex="1">
          <mxGeometry y="60" width="183" height="30" as="geometry" />
        </mxCell>
        <mxCell id="sgqy6lX0YCzwrD3tJaMA-4" value="name VARCHAR(64)" style="text;strokeColor=none;fillColor=none;align=left;verticalAlign=middle;spacingLeft=4;spacingRight=4;overflow=hidden;points=[[0,0.5],[1,0.5]];portConstraint=eastwest;rotatable=0;" parent="sgqy6lX0YCzwrD3tJaMA-1" vertex="1">
          <mxGeometry y="90" width="183" height="30" as="geometry" />
        </mxCell>
        <mxCell id="sgqy6lX0YCzwrD3tJaMA-5" value="email VARCHAR(64)" style="text;strokeColor=none;fillColor=none;align=left;verticalAlign=middle;spacingLeft=4;spacingRight=4;overflow=hidden;points=[[0,0.5],[1,0.5]];portConstraint=eastwest;rotatable=0;" parent="sgqy6lX0YCzwrD3tJaMA-1" vertex="1">
          <mxGeometry y="120" width="183" height="30" as="geometry" />
        </mxCell>
        <mxCell id="qFvdVQgW3yLnntvGRlcR-1" style="edgeStyle=orthogonalEdgeStyle;rounded=0;orthogonalLoop=1;jettySize=auto;html=1;dashed=1;startArrow=ERone;startFill=0;endArrow=ERoneToMany;endFill=0;" parent="1" source="sgqy6lX0YCzwrD3tJaMA-2" target="BBww2P8DhDifccwjUvWb-8" edge="1">
          <mxGeometry relative="1" as="geometry" />
        </mxCell>
        <mxCell id="En_GcAgmOY5F2COBi5RJ-5" style="edgeStyle=orthogonalEdgeStyle;rounded=0;orthogonalLoop=1;jettySize=auto;html=1;entryX=0;entryY=0.5;entryDx=0;entryDy=0;dashed=1;startArrow=ERone;startFill=0;endArrow=ERoneToMany;endFill=0;" parent="1" source="sgqy6lX0YCzwrD3tJaMA-2" target="En_GcAgmOY5F2COBi5RJ-4" edge="1">
          <mxGeometry relative="1" as="geometry" />
        </mxCell>
      </root>
    </mxGraphModel>
  </diagram>
  <diagram id="-RKf9ccmNWYRLN6kE9dH" name="Page-8">
    <mxGraphModel dx="965" dy="597" grid="0" gridSize="10" guides="1" tooltips="1" connect="1" arrows="1" fold="1" page="1" pageScale="1" pageWidth="2339" pageHeight="3300" math="0" shadow="0">
      <root>
        <mxCell id="ydTBIzTonODs98v6E-wi-0" />
        <mxCell id="ydTBIzTonODs98v6E-wi-1" parent="ydTBIzTonODs98v6E-wi-0" />
        <mxCell id="NKIxG7tDU4Dmrp1auoOs-5" style="edgeStyle=orthogonalEdgeStyle;rounded=0;orthogonalLoop=1;jettySize=auto;html=1;exitX=1;exitY=0.25;exitDx=0;exitDy=0;" parent="ydTBIzTonODs98v6E-wi-1" edge="1">
          <mxGeometry relative="1" as="geometry">
            <mxPoint x="269.5832559640068" y="318.0042857142858" as="targetPoint" />
            <mxPoint x="101.41999999999977" y="318.5399999999998" as="sourcePoint" />
            <Array as="points">
              <mxPoint x="233.42" y="318.29" />
              <mxPoint x="233.42" y="318.29" />
            </Array>
          </mxGeometry>
        </mxCell>
        <mxCell id="NKIxG7tDU4Dmrp1auoOs-9" style="edgeStyle=orthogonalEdgeStyle;rounded=0;orthogonalLoop=1;jettySize=auto;html=1;" parent="ydTBIzTonODs98v6E-wi-1" edge="1">
          <mxGeometry relative="1" as="geometry">
            <mxPoint x="273.24493844168546" y="645.5" as="targetPoint" />
            <mxPoint x="100.99999999999977" y="645.5" as="sourcePoint" />
          </mxGeometry>
        </mxCell>
        <mxCell id="NKIxG7tDU4Dmrp1auoOs-14" style="edgeStyle=orthogonalEdgeStyle;rounded=0;orthogonalLoop=1;jettySize=auto;html=1;exitX=1;exitY=0.75;exitDx=0;exitDy=0;" parent="ydTBIzTonODs98v6E-wi-1" edge="1">
          <mxGeometry relative="1" as="geometry">
            <mxPoint x="275.6940176827568" y="495.57142857142867" as="targetPoint" />
            <mxPoint x="100.99999999999977" y="495.75000000000045" as="sourcePoint" />
            <Array as="points">
              <mxPoint x="224" y="496" />
              <mxPoint x="224" y="496" />
            </Array>
          </mxGeometry>
        </mxCell>
        <mxCell id="NKIxG7tDU4Dmrp1auoOs-60" style="edgeStyle=orthogonalEdgeStyle;rounded=0;orthogonalLoop=1;jettySize=auto;html=1;exitX=0.75;exitY=1;exitDx=0;exitDy=0;entryX=0;entryY=0.25;entryDx=0;entryDy=0;" parent="ydTBIzTonODs98v6E-wi-1" source="X-4_rcGuAsvBCAC9Z-aS-1" target="NKIxG7tDU4Dmrp1auoOs-58" edge="1">
          <mxGeometry relative="1" as="geometry" />
        </mxCell>
        <mxCell id="X-4_rcGuAsvBCAC9Z-aS-1" value="Client&lt;br&gt;(Web Browser)" style="rounded=0;whiteSpace=wrap;html=1;" parent="ydTBIzTonODs98v6E-wi-1" vertex="1">
          <mxGeometry x="11" y="287" width="90" height="425" as="geometry" />
        </mxCell>
        <mxCell id="X-4_rcGuAsvBCAC9Z-aS-2" value="" style="edgeStyle=orthogonalEdgeStyle;rounded=0;orthogonalLoop=1;jettySize=auto;html=1;" parent="ydTBIzTonODs98v6E-wi-1" edge="1">
          <mxGeometry relative="1" as="geometry">
            <mxPoint x="394" y="312" as="sourcePoint" />
            <mxPoint x="556" y="312" as="targetPoint" />
          </mxGeometry>
        </mxCell>
        <mxCell id="NKIxG7tDU4Dmrp1auoOs-7" style="edgeStyle=orthogonalEdgeStyle;rounded=0;orthogonalLoop=1;jettySize=auto;html=1;exitX=0;exitY=0.25;exitDx=0;exitDy=0;" parent="ydTBIzTonODs98v6E-wi-1" edge="1">
          <mxGeometry relative="1" as="geometry">
            <mxPoint x="103.71435110909601" y="338" as="targetPoint" />
            <mxPoint x="273.9999999999998" y="337.5" as="sourcePoint" />
            <Array as="points">
              <mxPoint x="148" y="338" />
              <mxPoint x="148" y="338" />
            </Array>
          </mxGeometry>
        </mxCell>
        <mxCell id="NKIxG7tDU4Dmrp1auoOs-12" style="edgeStyle=orthogonalEdgeStyle;rounded=0;orthogonalLoop=1;jettySize=auto;html=1;" parent="ydTBIzTonODs98v6E-wi-1" edge="1">
          <mxGeometry relative="1" as="geometry">
            <mxPoint x="103.62489484514515" y="661" as="targetPoint" />
            <mxPoint x="267.37999999999977" y="661" as="sourcePoint" />
          </mxGeometry>
        </mxCell>
        <mxCell id="NKIxG7tDU4Dmrp1auoOs-47" style="edgeStyle=orthogonalEdgeStyle;rounded=0;orthogonalLoop=1;jettySize=auto;html=1;exitX=1;exitY=0.25;exitDx=0;exitDy=0;" parent="ydTBIzTonODs98v6E-wi-1" edge="1">
          <mxGeometry relative="1" as="geometry">
            <mxPoint x="554.4285736083984" y="423" as="targetPoint" />
            <mxPoint x="394" y="422.5" as="sourcePoint" />
            <Array as="points">
              <mxPoint x="516" y="423" />
              <mxPoint x="516" y="423" />
            </Array>
          </mxGeometry>
        </mxCell>
        <mxCell id="NKIxG7tDU4Dmrp1auoOs-54" style="edgeStyle=orthogonalEdgeStyle;rounded=0;orthogonalLoop=1;jettySize=auto;html=1;exitX=0;exitY=0.5;exitDx=0;exitDy=0;" parent="ydTBIzTonODs98v6E-wi-1" edge="1">
          <mxGeometry relative="1" as="geometry">
            <mxPoint x="102.63262503487726" y="476.91843741280695" as="targetPoint" />
            <Array as="points">
              <mxPoint x="277" y="477" />
            </Array>
            <mxPoint x="277" y="385.5" as="sourcePoint" />
          </mxGeometry>
        </mxCell>
        <mxCell id="X-4_rcGuAsvBCAC9Z-aS-3" value="WorkController" style="rounded=0;whiteSpace=wrap;html=1;" parent="ydTBIzTonODs98v6E-wi-1" vertex="1">
          <mxGeometry x="277" y="280" width="117" height="303" as="geometry" />
        </mxCell>
        <mxCell id="X-4_rcGuAsvBCAC9Z-aS-4" value="" style="edgeStyle=orthogonalEdgeStyle;rounded=0;orthogonalLoop=1;jettySize=auto;html=1;" parent="ydTBIzTonODs98v6E-wi-1" edge="1">
          <mxGeometry relative="1" as="geometry">
            <mxPoint x="669" y="316" as="sourcePoint" />
            <mxPoint x="818" y="316" as="targetPoint" />
          </mxGeometry>
        </mxCell>
        <mxCell id="X-4_rcGuAsvBCAC9Z-aS-11" style="edgeStyle=orthogonalEdgeStyle;rounded=0;orthogonalLoop=1;jettySize=auto;html=1;entryX=1;entryY=0.5;entryDx=0;entryDy=0;" parent="ydTBIzTonODs98v6E-wi-1" edge="1">
          <mxGeometry relative="1" as="geometry">
            <mxPoint x="556" y="339" as="sourcePoint" />
            <mxPoint x="394" y="339" as="targetPoint" />
          </mxGeometry>
        </mxCell>
        <mxCell id="NKIxG7tDU4Dmrp1auoOs-46" style="edgeStyle=orthogonalEdgeStyle;rounded=0;orthogonalLoop=1;jettySize=auto;html=1;exitX=1;exitY=0.75;exitDx=0;exitDy=0;" parent="ydTBIzTonODs98v6E-wi-1" edge="1">
          <mxGeometry relative="1" as="geometry">
            <mxPoint x="815.5714569091797" y="438" as="targetPoint" />
            <mxPoint x="669" y="438.25" as="sourcePoint" />
            <Array as="points">
              <mxPoint x="779" y="438" />
              <mxPoint x="779" y="438" />
            </Array>
          </mxGeometry>
        </mxCell>
        <mxCell id="NKIxG7tDU4Dmrp1auoOs-55" style="edgeStyle=orthogonalEdgeStyle;rounded=0;orthogonalLoop=1;jettySize=auto;html=1;entryX=0.5;entryY=0;entryDx=0;entryDy=0;" parent="ydTBIzTonODs98v6E-wi-1" source="X-4_rcGuAsvBCAC9Z-aS-5" target="cPXbmc4kSIeWPbiCQVH_-27" edge="1">
          <mxGeometry relative="1" as="geometry">
            <Array as="points">
              <mxPoint x="613" y="556" />
              <mxPoint x="875" y="556" />
            </Array>
          </mxGeometry>
        </mxCell>
        <mxCell id="l24ZmHD4mTSbW-xqEfl8-0" style="edgeStyle=orthogonalEdgeStyle;rounded=0;orthogonalLoop=1;jettySize=auto;html=1;exitX=0;exitY=0.75;exitDx=0;exitDy=0;entryX=1.005;entryY=0.527;entryDx=0;entryDy=0;entryPerimeter=0;" parent="ydTBIzTonODs98v6E-wi-1" source="X-4_rcGuAsvBCAC9Z-aS-5" target="X-4_rcGuAsvBCAC9Z-aS-3" edge="1">
          <mxGeometry relative="1" as="geometry" />
        </mxCell>
        <mxCell id="X-4_rcGuAsvBCAC9Z-aS-5" value="WorkService" style="rounded=0;whiteSpace=wrap;html=1;" parent="ydTBIzTonODs98v6E-wi-1" vertex="1">
          <mxGeometry x="556" y="297" width="113" height="191" as="geometry" />
        </mxCell>
        <mxCell id="X-4_rcGuAsvBCAC9Z-aS-12" style="edgeStyle=orthogonalEdgeStyle;rounded=0;orthogonalLoop=1;jettySize=auto;html=1;entryX=1;entryY=0.5;entryDx=0;entryDy=0;" parent="ydTBIzTonODs98v6E-wi-1" edge="1">
          <mxGeometry relative="1" as="geometry">
            <mxPoint x="818" y="339" as="sourcePoint" />
            <mxPoint x="669" y="339" as="targetPoint" />
          </mxGeometry>
        </mxCell>
        <mxCell id="cPXbmc4kSIeWPbiCQVH_-11" style="edgeStyle=orthogonalEdgeStyle;rounded=0;orthogonalLoop=1;jettySize=auto;html=1;" parent="ydTBIzTonODs98v6E-wi-1" edge="1">
          <mxGeometry relative="1" as="geometry">
            <mxPoint x="1041" y="315" as="targetPoint" />
            <mxPoint x="933.9999999999998" y="315" as="sourcePoint" />
          </mxGeometry>
        </mxCell>
        <mxCell id="X-4_rcGuAsvBCAC9Z-aS-13" value="카테고리별&lt;br&gt;작업 현황 요청&lt;br&gt;&#39;GET /works&#39;" style="text;html=1;strokeColor=none;fillColor=none;align=center;verticalAlign=middle;whiteSpace=wrap;rounded=0;" parent="ydTBIzTonODs98v6E-wi-1" vertex="1">
          <mxGeometry x="129.5" y="258" width="112" height="53" as="geometry" />
        </mxCell>
        <mxCell id="X-4_rcGuAsvBCAC9Z-aS-15" value="카테고리 정보 요청" style="text;html=1;strokeColor=none;fillColor=none;align=center;verticalAlign=middle;whiteSpace=wrap;rounded=0;" parent="ydTBIzTonODs98v6E-wi-1" vertex="1">
          <mxGeometry x="678" y="279" width="129" height="40" as="geometry" />
        </mxCell>
        <mxCell id="X-4_rcGuAsvBCAC9Z-aS-16" value="ColumnList 응답&lt;br&gt;(Data Transfer Object)" style="text;html=1;strokeColor=none;fillColor=none;align=center;verticalAlign=middle;whiteSpace=wrap;rounded=0;" parent="ydTBIzTonODs98v6E-wi-1" vertex="1">
          <mxGeometry x="417" y="340" width="126" height="55" as="geometry" />
        </mxCell>
        <mxCell id="cPXbmc4kSIeWPbiCQVH_-15" style="edgeStyle=orthogonalEdgeStyle;rounded=0;orthogonalLoop=1;jettySize=auto;html=1;" parent="ydTBIzTonODs98v6E-wi-1" edge="1">
          <mxGeometry relative="1" as="geometry">
            <mxPoint x="932.8421052631579" y="340" as="targetPoint" />
            <mxPoint x="1041" y="340" as="sourcePoint" />
          </mxGeometry>
        </mxCell>
        <mxCell id="NKIxG7tDU4Dmrp1auoOs-41" style="edgeStyle=orthogonalEdgeStyle;rounded=0;orthogonalLoop=1;jettySize=auto;html=1;entryX=1;entryY=0.5;entryDx=0;entryDy=0;" parent="ydTBIzTonODs98v6E-wi-1" source="X-4_rcGuAsvBCAC9Z-aS-17" target="NKIxG7tDU4Dmrp1auoOs-35" edge="1">
          <mxGeometry relative="1" as="geometry">
            <Array as="points">
              <mxPoint x="1014" y="424" />
              <mxPoint x="1014" y="424" />
            </Array>
          </mxGeometry>
        </mxCell>
        <mxCell id="X-4_rcGuAsvBCAC9Z-aS-17" value="DataBase&lt;br&gt;(MySQL)" style="rounded=0;whiteSpace=wrap;html=1;" parent="ydTBIzTonODs98v6E-wi-1" vertex="1">
          <mxGeometry x="1041" y="281" width="120" height="426" as="geometry" />
        </mxCell>
        <mxCell id="cPXbmc4kSIeWPbiCQVH_-7" value="카테고리별&lt;br&gt;작업 현황 응답" style="text;html=1;strokeColor=none;fillColor=none;align=center;verticalAlign=middle;whiteSpace=wrap;rounded=0;" parent="ydTBIzTonODs98v6E-wi-1" vertex="1">
          <mxGeometry x="130.5" y="339" width="107" height="45" as="geometry" />
        </mxCell>
        <mxCell id="cPXbmc4kSIeWPbiCQVH_-8" value="ColumnList 요청" style="text;html=1;strokeColor=none;fillColor=none;align=center;verticalAlign=middle;whiteSpace=wrap;rounded=0;" parent="ydTBIzTonODs98v6E-wi-1" vertex="1">
          <mxGeometry x="408" y="280" width="137" height="34" as="geometry" />
        </mxCell>
        <mxCell id="cPXbmc4kSIeWPbiCQVH_-9" value="&lt;h1&gt;Todo-List Project Flow Chart&lt;/h1&gt;" style="text;html=1;strokeColor=none;fillColor=none;spacing=5;spacingTop=-20;whiteSpace=wrap;overflow=hidden;rounded=0;" parent="ydTBIzTonODs98v6E-wi-1" vertex="1">
          <mxGeometry x="22" y="195" width="621" height="54" as="geometry" />
        </mxCell>
        <mxCell id="cPXbmc4kSIeWPbiCQVH_-10" value="카테고리 정보 응답" style="text;html=1;strokeColor=none;fillColor=none;align=center;verticalAlign=middle;whiteSpace=wrap;rounded=0;" parent="ydTBIzTonODs98v6E-wi-1" vertex="1">
          <mxGeometry x="681" y="349" width="129" height="18" as="geometry" />
        </mxCell>
        <mxCell id="cPXbmc4kSIeWPbiCQVH_-12" value="SQL" style="text;html=1;strokeColor=none;fillColor=none;align=center;verticalAlign=middle;whiteSpace=wrap;rounded=0;" parent="ydTBIzTonODs98v6E-wi-1" vertex="1">
          <mxGeometry x="933" y="287" width="101" height="22" as="geometry" />
        </mxCell>
        <mxCell id="cPXbmc4kSIeWPbiCQVH_-16" value="Data" style="text;html=1;strokeColor=none;fillColor=none;align=center;verticalAlign=middle;whiteSpace=wrap;rounded=0;" parent="ydTBIzTonODs98v6E-wi-1" vertex="1">
          <mxGeometry x="953" y="350" width="66" height="20" as="geometry" />
        </mxCell>
        <mxCell id="cPXbmc4kSIeWPbiCQVH_-18" value="사용자별 활동 기록 요청&lt;br&gt;&#39;GET /user-logs&#39;" style="text;html=1;strokeColor=none;fillColor=none;align=center;verticalAlign=middle;whiteSpace=wrap;rounded=0;" parent="ydTBIzTonODs98v6E-wi-1" vertex="1">
          <mxGeometry x="111.5" y="602.5" width="138.5" height="37" as="geometry" />
        </mxCell>
        <mxCell id="cPXbmc4kSIeWPbiCQVH_-20" value="사용자별 활동 기록 응답" style="text;html=1;strokeColor=none;fillColor=none;align=center;verticalAlign=middle;whiteSpace=wrap;rounded=0;" parent="ydTBIzTonODs98v6E-wi-1" vertex="1">
          <mxGeometry x="108.5" y="666" width="156.5" height="25" as="geometry" />
        </mxCell>
        <mxCell id="l24ZmHD4mTSbW-xqEfl8-8" style="edgeStyle=orthogonalEdgeStyle;rounded=0;orthogonalLoop=1;jettySize=auto;html=1;" parent="ydTBIzTonODs98v6E-wi-1" source="cPXbmc4kSIeWPbiCQVH_-21" edge="1">
          <mxGeometry relative="1" as="geometry">
            <mxPoint x="395.7647058823529" y="663.9999999999998" as="targetPoint" />
          </mxGeometry>
        </mxCell>
        <mxCell id="cPXbmc4kSIeWPbiCQVH_-21" value="UserLogService" style="rounded=0;whiteSpace=wrap;html=1;" parent="ydTBIzTonODs98v6E-wi-1" vertex="1">
          <mxGeometry x="549" y="614" width="120" height="100" as="geometry" />
        </mxCell>
        <mxCell id="cPXbmc4kSIeWPbiCQVH_-25" value="WorkLogList 요청" style="text;html=1;strokeColor=none;fillColor=none;align=center;verticalAlign=middle;whiteSpace=wrap;rounded=0;" parent="ydTBIzTonODs98v6E-wi-1" vertex="1">
          <mxGeometry x="402.5" y="597" width="137" height="34" as="geometry" />
        </mxCell>
        <mxCell id="cPXbmc4kSIeWPbiCQVH_-26" value="WorkLogList 응답&lt;br&gt;(Data Transfer Object)" style="text;html=1;strokeColor=none;fillColor=none;align=center;verticalAlign=middle;whiteSpace=wrap;rounded=0;" parent="ydTBIzTonODs98v6E-wi-1" vertex="1">
          <mxGeometry x="408" y="668" width="126" height="55" as="geometry" />
        </mxCell>
        <mxCell id="cPXbmc4kSIeWPbiCQVH_-27" value="UserLogRepository" style="rounded=0;whiteSpace=wrap;html=1;" parent="ydTBIzTonODs98v6E-wi-1" vertex="1">
          <mxGeometry x="818" y="631" width="113" height="60" as="geometry" />
        </mxCell>
        <mxCell id="cPXbmc4kSIeWPbiCQVH_-28" value="" style="edgeStyle=orthogonalEdgeStyle;rounded=0;orthogonalLoop=1;jettySize=auto;html=1;" parent="ydTBIzTonODs98v6E-wi-1" edge="1">
          <mxGeometry relative="1" as="geometry">
            <mxPoint x="668" y="644" as="sourcePoint" />
            <mxPoint x="817" y="644" as="targetPoint" />
          </mxGeometry>
        </mxCell>
        <mxCell id="cPXbmc4kSIeWPbiCQVH_-29" style="edgeStyle=orthogonalEdgeStyle;rounded=0;orthogonalLoop=1;jettySize=auto;html=1;entryX=1;entryY=0.5;entryDx=0;entryDy=0;" parent="ydTBIzTonODs98v6E-wi-1" edge="1">
          <mxGeometry relative="1" as="geometry">
            <mxPoint x="817" y="667" as="sourcePoint" />
            <mxPoint x="668" y="667" as="targetPoint" />
          </mxGeometry>
        </mxCell>
        <mxCell id="cPXbmc4kSIeWPbiCQVH_-30" value="활동 기록 데이터 요청" style="text;html=1;strokeColor=none;fillColor=none;align=center;verticalAlign=middle;whiteSpace=wrap;rounded=0;" parent="ydTBIzTonODs98v6E-wi-1" vertex="1">
          <mxGeometry x="681" y="609" width="129" height="40" as="geometry" />
        </mxCell>
        <mxCell id="cPXbmc4kSIeWPbiCQVH_-31" value="활동 기록 데이터 응답" style="text;html=1;strokeColor=none;fillColor=none;align=center;verticalAlign=middle;whiteSpace=wrap;rounded=0;" parent="ydTBIzTonODs98v6E-wi-1" vertex="1">
          <mxGeometry x="680" y="668" width="128" height="37" as="geometry" />
        </mxCell>
        <mxCell id="NKIxG7tDU4Dmrp1auoOs-0" value="CateogryRepository" style="rounded=0;whiteSpace=wrap;html=1;" parent="ydTBIzTonODs98v6E-wi-1" vertex="1">
          <mxGeometry x="818" y="297" width="118" height="60" as="geometry" />
        </mxCell>
        <mxCell id="NKIxG7tDU4Dmrp1auoOs-15" value="카드 정보 처리 요청" style="text;html=1;strokeColor=none;fillColor=none;align=center;verticalAlign=middle;whiteSpace=wrap;rounded=0;" parent="ydTBIzTonODs98v6E-wi-1" vertex="1">
          <mxGeometry x="120.5" y="435" width="138" height="43.75" as="geometry" />
        </mxCell>
        <mxCell id="NKIxG7tDU4Dmrp1auoOs-19" value="카드 정보 처리 결과 응답" style="text;html=1;strokeColor=none;fillColor=none;align=center;verticalAlign=middle;whiteSpace=wrap;rounded=0;" parent="ydTBIzTonODs98v6E-wi-1" vertex="1">
          <mxGeometry x="109.25" y="508" width="160.5" height="25" as="geometry" />
        </mxCell>
        <mxCell id="NKIxG7tDU4Dmrp1auoOs-31" style="edgeStyle=orthogonalEdgeStyle;rounded=0;orthogonalLoop=1;jettySize=auto;html=1;" parent="ydTBIzTonODs98v6E-wi-1" edge="1">
          <mxGeometry relative="1" as="geometry">
            <mxPoint x="1039.16" y="648" as="targetPoint" />
            <mxPoint x="932.16" y="648" as="sourcePoint" />
          </mxGeometry>
        </mxCell>
        <mxCell id="NKIxG7tDU4Dmrp1auoOs-32" style="edgeStyle=orthogonalEdgeStyle;rounded=0;orthogonalLoop=1;jettySize=auto;html=1;" parent="ydTBIzTonODs98v6E-wi-1" edge="1">
          <mxGeometry relative="1" as="geometry">
            <mxPoint x="931.0021052631579" y="673" as="targetPoint" />
            <mxPoint x="1039.16" y="673" as="sourcePoint" />
          </mxGeometry>
        </mxCell>
        <mxCell id="NKIxG7tDU4Dmrp1auoOs-33" value="SQL" style="text;html=1;strokeColor=none;fillColor=none;align=center;verticalAlign=middle;whiteSpace=wrap;rounded=0;" parent="ydTBIzTonODs98v6E-wi-1" vertex="1">
          <mxGeometry x="934.16" y="619" width="101" height="23" as="geometry" />
        </mxCell>
        <mxCell id="NKIxG7tDU4Dmrp1auoOs-34" value="Data" style="text;html=1;strokeColor=none;fillColor=none;align=center;verticalAlign=middle;whiteSpace=wrap;rounded=0;" parent="ydTBIzTonODs98v6E-wi-1" vertex="1">
          <mxGeometry x="953" y="679" width="66" height="20" as="geometry" />
        </mxCell>
        <mxCell id="NKIxG7tDU4Dmrp1auoOs-40" style="edgeStyle=orthogonalEdgeStyle;rounded=0;orthogonalLoop=1;jettySize=auto;html=1;exitX=1;exitY=0.25;exitDx=0;exitDy=0;" parent="ydTBIzTonODs98v6E-wi-1" source="NKIxG7tDU4Dmrp1auoOs-35" edge="1">
          <mxGeometry relative="1" as="geometry">
            <mxPoint x="1040.714340209961" y="409" as="targetPoint" />
          </mxGeometry>
        </mxCell>
        <mxCell id="NKIxG7tDU4Dmrp1auoOs-56" style="edgeStyle=orthogonalEdgeStyle;rounded=0;orthogonalLoop=1;jettySize=auto;html=1;" parent="ydTBIzTonODs98v6E-wi-1" source="NKIxG7tDU4Dmrp1auoOs-35" edge="1">
          <mxGeometry relative="1" as="geometry">
            <mxPoint x="670.4286956787109" y="424" as="targetPoint" />
          </mxGeometry>
        </mxCell>
        <mxCell id="NKIxG7tDU4Dmrp1auoOs-35" value="WorkRepository" style="rounded=0;whiteSpace=wrap;html=1;" parent="ydTBIzTonODs98v6E-wi-1" vertex="1">
          <mxGeometry x="816" y="394" width="120" height="60" as="geometry" />
        </mxCell>
        <mxCell id="NKIxG7tDU4Dmrp1auoOs-38" value="카드 정보 처리 요청" style="text;html=1;strokeColor=none;fillColor=none;align=center;verticalAlign=middle;whiteSpace=wrap;rounded=0;" parent="ydTBIzTonODs98v6E-wi-1" vertex="1">
          <mxGeometry x="678.5" y="398" width="124" height="18" as="geometry" />
        </mxCell>
        <mxCell id="NKIxG7tDU4Dmrp1auoOs-39" value="카드 정보 처리 결과 응답" style="text;html=1;strokeColor=none;fillColor=none;align=center;verticalAlign=middle;whiteSpace=wrap;rounded=0;" parent="ydTBIzTonODs98v6E-wi-1" vertex="1">
          <mxGeometry x="669" y="446" width="149" height="18" as="geometry" />
        </mxCell>
        <mxCell id="NKIxG7tDU4Dmrp1auoOs-42" value="Data" style="text;html=1;strokeColor=none;fillColor=none;align=center;verticalAlign=middle;whiteSpace=wrap;rounded=0;" parent="ydTBIzTonODs98v6E-wi-1" vertex="1">
          <mxGeometry x="950.5" y="432" width="66" height="20" as="geometry" />
        </mxCell>
        <mxCell id="NKIxG7tDU4Dmrp1auoOs-43" value="SQL" style="text;html=1;strokeColor=none;fillColor=none;align=center;verticalAlign=middle;whiteSpace=wrap;rounded=0;" parent="ydTBIzTonODs98v6E-wi-1" vertex="1">
          <mxGeometry x="933" y="382" width="101" height="22" as="geometry" />
        </mxCell>
        <mxCell id="NKIxG7tDU4Dmrp1auoOs-48" value="카드 정보 처리 요청" style="text;html=1;strokeColor=none;fillColor=none;align=center;verticalAlign=middle;whiteSpace=wrap;rounded=0;" parent="ydTBIzTonODs98v6E-wi-1" vertex="1">
          <mxGeometry x="414" y="393" width="129" height="30" as="geometry" />
        </mxCell>
        <mxCell id="NKIxG7tDU4Dmrp1auoOs-50" value="카드 정보 처리 결과 응답&lt;br&gt;(Data Transfer Object)" style="text;html=1;strokeColor=none;fillColor=none;align=center;verticalAlign=middle;whiteSpace=wrap;rounded=0;" parent="ydTBIzTonODs98v6E-wi-1" vertex="1">
          <mxGeometry x="399" y="451" width="150" height="30" as="geometry" />
        </mxCell>
        <mxCell id="NKIxG7tDU4Dmrp1auoOs-53" value="사용자별 활동 기록 저장 요청" style="text;html=1;strokeColor=none;fillColor=none;align=center;verticalAlign=middle;whiteSpace=wrap;rounded=0;" parent="ydTBIzTonODs98v6E-wi-1" vertex="1">
          <mxGeometry x="627" y="520" width="189" height="30" as="geometry" />
        </mxCell>
        <mxCell id="NKIxG7tDU4Dmrp1auoOs-61" style="edgeStyle=orthogonalEdgeStyle;rounded=0;orthogonalLoop=1;jettySize=auto;html=1;entryX=0.5;entryY=1;entryDx=0;entryDy=0;" parent="ydTBIzTonODs98v6E-wi-1" source="NKIxG7tDU4Dmrp1auoOs-58" target="X-4_rcGuAsvBCAC9Z-aS-1" edge="1">
          <mxGeometry relative="1" as="geometry" />
        </mxCell>
        <mxCell id="NKIxG7tDU4Dmrp1auoOs-58" value="MainController" style="rounded=0;whiteSpace=wrap;html=1;" parent="ydTBIzTonODs98v6E-wi-1" vertex="1">
          <mxGeometry x="272.5" y="774" width="120" height="60" as="geometry" />
        </mxCell>
        <mxCell id="NKIxG7tDU4Dmrp1auoOs-62" value="메인 화면 요청" style="text;html=1;strokeColor=none;fillColor=none;align=center;verticalAlign=middle;whiteSpace=wrap;rounded=0;" parent="ydTBIzTonODs98v6E-wi-1" vertex="1">
          <mxGeometry x="124.5" y="753" width="88.5" height="30" as="geometry" />
        </mxCell>
        <mxCell id="NKIxG7tDU4Dmrp1auoOs-63" value="메인 화면 응답" style="text;html=1;strokeColor=none;fillColor=none;align=center;verticalAlign=middle;whiteSpace=wrap;rounded=0;" parent="ydTBIzTonODs98v6E-wi-1" vertex="1">
          <mxGeometry x="120.5" y="809" width="103.5" height="30" as="geometry" />
        </mxCell>
        <mxCell id="l24ZmHD4mTSbW-xqEfl8-7" style="edgeStyle=orthogonalEdgeStyle;rounded=0;orthogonalLoop=1;jettySize=auto;html=1;exitX=1;exitY=0.25;exitDx=0;exitDy=0;" parent="ydTBIzTonODs98v6E-wi-1" source="l24ZmHD4mTSbW-xqEfl8-1" edge="1">
          <mxGeometry relative="1" as="geometry">
            <mxPoint x="549" y="635" as="targetPoint" />
          </mxGeometry>
        </mxCell>
        <mxCell id="l24ZmHD4mTSbW-xqEfl8-1" value="UserLogController" style="rounded=0;whiteSpace=wrap;html=1;" parent="ydTBIzTonODs98v6E-wi-1" vertex="1">
          <mxGeometry x="274" y="609" width="120" height="102" as="geometry" />
        </mxCell>
      </root>
    </mxGraphModel>
  </diagram>
  <diagram id="LCO-iF8AaZzdR3wFAMCx" name="Page-12">
    <mxGraphModel dx="1379" dy="853" grid="0" gridSize="10" guides="1" tooltips="1" connect="1" arrows="1" fold="1" page="1" pageScale="1" pageWidth="2339" pageHeight="3300" math="0" shadow="0">
      <root>
        <mxCell id="0" />
        <mxCell id="1" parent="0" />
        <mxCell id="3BNklEimH8n4Zrxnkwmt-1" value="&lt;span style=&quot;font-size: 18px&quot;&gt;user&lt;/span&gt;" style="rounded=0;whiteSpace=wrap;html=1;" parent="1" vertex="1">
          <mxGeometry x="252" y="195" width="120" height="60" as="geometry" />
        </mxCell>
        <mxCell id="AA6Ch6b5p39CD9sCai_s-1" value="password" style="ellipse;whiteSpace=wrap;html=1;fontSize=18;" parent="1" vertex="1">
          <mxGeometry x="17" y="123" width="120" height="80" as="geometry" />
        </mxCell>
        <mxCell id="AA6Ch6b5p39CD9sCai_s-2" value="email" style="ellipse;whiteSpace=wrap;html=1;fontSize=18;" parent="1" vertex="1">
          <mxGeometry x="92" y="331" width="120" height="80" as="geometry" />
        </mxCell>
        <mxCell id="AA6Ch6b5p39CD9sCai_s-3" value="name" style="ellipse;whiteSpace=wrap;html=1;fontSize=18;" parent="1" vertex="1">
          <mxGeometry x="17" y="227" width="120" height="80" as="geometry" />
        </mxCell>
        <mxCell id="AA6Ch6b5p39CD9sCai_s-4" value="&lt;u&gt;user_id&lt;/u&gt;" style="ellipse;whiteSpace=wrap;html=1;fontSize=18;" parent="1" vertex="1">
          <mxGeometry x="92" y="26" width="120" height="80" as="geometry" />
        </mxCell>
        <mxCell id="AA6Ch6b5p39CD9sCai_s-7" value="" style="endArrow=none;html=1;rounded=0;fontSize=18;entryX=0;entryY=0;entryDx=0;entryDy=0;exitX=1;exitY=1;exitDx=0;exitDy=0;" parent="1" source="AA6Ch6b5p39CD9sCai_s-4" target="3BNklEimH8n4Zrxnkwmt-1" edge="1">
          <mxGeometry width="50" height="50" relative="1" as="geometry">
            <mxPoint x="216" y="160" as="sourcePoint" />
            <mxPoint x="266" y="110" as="targetPoint" />
          </mxGeometry>
        </mxCell>
        <mxCell id="AA6Ch6b5p39CD9sCai_s-8" value="" style="endArrow=none;html=1;rounded=0;fontSize=18;entryX=0;entryY=0.25;entryDx=0;entryDy=0;" parent="1" target="3BNklEimH8n4Zrxnkwmt-1" edge="1">
          <mxGeometry width="50" height="50" relative="1" as="geometry">
            <mxPoint x="138" y="167" as="sourcePoint" />
            <mxPoint x="202" y="160" as="targetPoint" />
          </mxGeometry>
        </mxCell>
        <mxCell id="AA6Ch6b5p39CD9sCai_s-9" value="" style="endArrow=none;html=1;rounded=0;fontSize=18;" parent="1" edge="1">
          <mxGeometry width="50" height="50" relative="1" as="geometry">
            <mxPoint x="139" y="263" as="sourcePoint" />
            <mxPoint x="250" y="227" as="targetPoint" />
          </mxGeometry>
        </mxCell>
        <mxCell id="AA6Ch6b5p39CD9sCai_s-10" value="" style="endArrow=none;html=1;rounded=0;fontSize=18;entryX=0;entryY=1;entryDx=0;entryDy=0;" parent="1" target="3BNklEimH8n4Zrxnkwmt-1" edge="1">
          <mxGeometry width="50" height="50" relative="1" as="geometry">
            <mxPoint x="180" y="336" as="sourcePoint" />
            <mxPoint x="230" y="286" as="targetPoint" />
          </mxGeometry>
        </mxCell>
        <mxCell id="8Rm-TqMLmk1SNDKTx0_U-1" value="category" style="rounded=0;whiteSpace=wrap;html=1;fontSize=18;" parent="1" vertex="1">
          <mxGeometry x="913" y="195" width="120" height="60" as="geometry" />
        </mxCell>
        <mxCell id="Mq5N_yoMEjy944DCPWRL-14" style="edgeStyle=orthogonalEdgeStyle;rounded=0;orthogonalLoop=1;jettySize=auto;html=1;fontSize=18;startArrow=none;startFill=0;endArrow=none;endFill=0;" parent="1" source="8Rm-TqMLmk1SNDKTx0_U-2" edge="1">
          <mxGeometry relative="1" as="geometry">
            <mxPoint x="910.2857142857142" y="225.99999999999977" as="targetPoint" />
          </mxGeometry>
        </mxCell>
        <mxCell id="8Rm-TqMLmk1SNDKTx0_U-2" value="등록" style="rhombus;whiteSpace=wrap;html=1;fontSize=18;" parent="1" vertex="1">
          <mxGeometry x="588" y="197" width="137" height="58" as="geometry" />
        </mxCell>
        <mxCell id="8Rm-TqMLmk1SNDKTx0_U-6" value="" style="endArrow=none;html=1;rounded=0;fontSize=18;entryX=0;entryY=0.5;entryDx=0;entryDy=0;" parent="1" target="8Rm-TqMLmk1SNDKTx0_U-2" edge="1">
          <mxGeometry width="50" height="50" relative="1" as="geometry">
            <mxPoint x="373" y="226" as="sourcePoint" />
            <mxPoint x="425" y="200" as="targetPoint" />
          </mxGeometry>
        </mxCell>
        <mxCell id="pl0i3YnLJLiqjxXqJUdT-1" value="name" style="ellipse;whiteSpace=wrap;html=1;fontSize=18;" parent="1" vertex="1">
          <mxGeometry x="1094" y="268" width="120" height="80" as="geometry" />
        </mxCell>
        <mxCell id="21rppylOS1bMfHUa9WPb-1" value="&lt;u&gt;category_id&lt;/u&gt;" style="ellipse;whiteSpace=wrap;html=1;fontSize=18;" parent="1" vertex="1">
          <mxGeometry x="1094" y="83" width="120" height="80" as="geometry" />
        </mxCell>
        <mxCell id="21rppylOS1bMfHUa9WPb-2" value="" style="endArrow=none;html=1;rounded=0;fontSize=18;entryX=0.042;entryY=0.75;entryDx=0;entryDy=0;entryPerimeter=0;" parent="1" target="21rppylOS1bMfHUa9WPb-1" edge="1">
          <mxGeometry width="50" height="50" relative="1" as="geometry">
            <mxPoint x="1032" y="195" as="sourcePoint" />
            <mxPoint x="1082" y="145" as="targetPoint" />
          </mxGeometry>
        </mxCell>
        <mxCell id="21rppylOS1bMfHUa9WPb-3" value="" style="endArrow=none;html=1;rounded=0;fontSize=18;exitX=1;exitY=1;exitDx=0;exitDy=0;entryX=0;entryY=0.5;entryDx=0;entryDy=0;" parent="1" source="8Rm-TqMLmk1SNDKTx0_U-1" target="pl0i3YnLJLiqjxXqJUdT-1" edge="1">
          <mxGeometry width="50" height="50" relative="1" as="geometry">
            <mxPoint x="1032" y="292" as="sourcePoint" />
            <mxPoint x="1082" y="242" as="targetPoint" />
          </mxGeometry>
        </mxCell>
        <mxCell id="dogVS2qwlswz8s6yhBNq-1" value="work" style="rounded=0;whiteSpace=wrap;html=1;fontSize=18;" parent="1" vertex="1">
          <mxGeometry x="918" y="628" width="120" height="60" as="geometry" />
        </mxCell>
        <mxCell id="EVaVtJh4HfkLbReri1Tu-1" value="&lt;u&gt;id&lt;/u&gt;" style="ellipse;whiteSpace=wrap;html=1;fontSize=18;" parent="1" vertex="1">
          <mxGeometry x="17" y="568" width="120" height="80" as="geometry" />
        </mxCell>
        <mxCell id="EVaVtJh4HfkLbReri1Tu-2" value="action" style="ellipse;whiteSpace=wrap;html=1;fontSize=18;" parent="1" vertex="1">
          <mxGeometry x="178" y="756" width="120" height="80" as="geometry" />
        </mxCell>
        <mxCell id="EVaVtJh4HfkLbReri1Tu-3" value="&lt;u&gt;id&lt;/u&gt;" style="ellipse;whiteSpace=wrap;html=1;fontSize=18;" parent="1" vertex="1">
          <mxGeometry x="706" y="566" width="120" height="80" as="geometry" />
        </mxCell>
        <mxCell id="EVaVtJh4HfkLbReri1Tu-4" value="created_datetime" style="ellipse;whiteSpace=wrap;html=1;fontSize=18;" parent="1" vertex="1">
          <mxGeometry x="1195" y="568" width="176" height="80" as="geometry" />
        </mxCell>
        <mxCell id="EVaVtJh4HfkLbReri1Tu-5" value="title" style="ellipse;whiteSpace=wrap;html=1;fontSize=18;" parent="1" vertex="1">
          <mxGeometry x="63" y="664" width="124" height="80" as="geometry" />
        </mxCell>
        <mxCell id="CPy1uQhuGp_4XdPz1byA-1" value="&lt;span&gt;changed_column&lt;/span&gt;" style="ellipse;whiteSpace=wrap;html=1;fontSize=18;" parent="1" vertex="1">
          <mxGeometry x="443" y="664" width="169" height="80" as="geometry" />
        </mxCell>
        <mxCell id="CPy1uQhuGp_4XdPz1byA-2" value="user_log" style="rounded=0;whiteSpace=wrap;html=1;fontSize=18;" parent="1" vertex="1">
          <mxGeometry x="252" y="628" width="120" height="60" as="geometry" />
        </mxCell>
        <mxCell id="4_VsJdn7qp_yfR55dBKB-1" value="previous_column" style="ellipse;whiteSpace=wrap;html=1;fontSize=18;" parent="1" vertex="1">
          <mxGeometry x="328" y="759" width="160" height="80" as="geometry" />
        </mxCell>
        <mxCell id="4_VsJdn7qp_yfR55dBKB-2" value="updated_datetime" style="ellipse;whiteSpace=wrap;html=1;fontSize=18;" parent="1" vertex="1">
          <mxGeometry x="469" y="568" width="184" height="80" as="geometry" />
        </mxCell>
        <mxCell id="Mq5N_yoMEjy944DCPWRL-2" style="edgeStyle=orthogonalEdgeStyle;rounded=0;orthogonalLoop=1;jettySize=auto;html=1;entryX=0.5;entryY=1;entryDx=0;entryDy=0;fontSize=18;startArrow=none;startFill=0;endArrow=none;endFill=0;" parent="1" source="4_VsJdn7qp_yfR55dBKB-3" target="3BNklEimH8n4Zrxnkwmt-1" edge="1">
          <mxGeometry relative="1" as="geometry" />
        </mxCell>
        <mxCell id="Mq5N_yoMEjy944DCPWRL-11" style="edgeStyle=orthogonalEdgeStyle;rounded=0;orthogonalLoop=1;jettySize=auto;html=1;entryX=0.5;entryY=0;entryDx=0;entryDy=0;fontSize=18;startArrow=none;startFill=0;endArrow=none;endFill=0;" parent="1" source="4_VsJdn7qp_yfR55dBKB-3" target="CPy1uQhuGp_4XdPz1byA-2" edge="1">
          <mxGeometry relative="1" as="geometry" />
        </mxCell>
        <mxCell id="4_VsJdn7qp_yfR55dBKB-3" value="로깅" style="rhombus;whiteSpace=wrap;html=1;fontSize=18;" parent="1" vertex="1">
          <mxGeometry x="272" y="367" width="80" height="133" as="geometry" />
        </mxCell>
        <mxCell id="Mq5N_yoMEjy944DCPWRL-4" value="" style="endArrow=none;html=1;rounded=0;fontSize=18;entryX=0;entryY=0.5;entryDx=0;entryDy=0;" parent="1" target="CPy1uQhuGp_4XdPz1byA-2" edge="1">
          <mxGeometry width="50" height="50" relative="1" as="geometry">
            <mxPoint x="140" y="605" as="sourcePoint" />
            <mxPoint x="220" y="574" as="targetPoint" />
          </mxGeometry>
        </mxCell>
        <mxCell id="Mq5N_yoMEjy944DCPWRL-5" value="" style="endArrow=none;html=1;rounded=0;fontSize=18;entryX=0;entryY=0.5;entryDx=0;entryDy=0;" parent="1" target="CPy1uQhuGp_4XdPz1byA-2" edge="1">
          <mxGeometry width="50" height="50" relative="1" as="geometry">
            <mxPoint x="184" y="704" as="sourcePoint" />
            <mxPoint x="234" y="654" as="targetPoint" />
          </mxGeometry>
        </mxCell>
        <mxCell id="Mq5N_yoMEjy944DCPWRL-6" value="" style="endArrow=none;html=1;rounded=0;fontSize=18;entryX=0;entryY=0.5;entryDx=0;entryDy=0;" parent="1" target="CPy1uQhuGp_4XdPz1byA-2" edge="1">
          <mxGeometry width="50" height="50" relative="1" as="geometry">
            <mxPoint x="234" y="756" as="sourcePoint" />
            <mxPoint x="284" y="706" as="targetPoint" />
          </mxGeometry>
        </mxCell>
        <mxCell id="Mq5N_yoMEjy944DCPWRL-7" value="" style="endArrow=none;html=1;rounded=0;fontSize=18;entryX=1;entryY=0.5;entryDx=0;entryDy=0;" parent="1" target="CPy1uQhuGp_4XdPz1byA-2" edge="1">
          <mxGeometry width="50" height="50" relative="1" as="geometry">
            <mxPoint x="406" y="759" as="sourcePoint" />
            <mxPoint x="456" y="709" as="targetPoint" />
          </mxGeometry>
        </mxCell>
        <mxCell id="Mq5N_yoMEjy944DCPWRL-8" value="" style="endArrow=none;html=1;rounded=0;fontSize=18;entryX=0;entryY=0.5;entryDx=0;entryDy=0;" parent="1" target="CPy1uQhuGp_4XdPz1byA-1" edge="1">
          <mxGeometry width="50" height="50" relative="1" as="geometry">
            <mxPoint x="372" y="658" as="sourcePoint" />
            <mxPoint x="422" y="614" as="targetPoint" />
          </mxGeometry>
        </mxCell>
        <mxCell id="Mq5N_yoMEjy944DCPWRL-10" value="" style="endArrow=none;html=1;rounded=0;fontSize=18;entryX=0;entryY=0.5;entryDx=0;entryDy=0;" parent="1" target="4_VsJdn7qp_yfR55dBKB-2" edge="1">
          <mxGeometry width="50" height="50" relative="1" as="geometry">
            <mxPoint x="372" y="659" as="sourcePoint" />
            <mxPoint x="422" y="609" as="targetPoint" />
          </mxGeometry>
        </mxCell>
        <mxCell id="Mq5N_yoMEjy944DCPWRL-15" style="edgeStyle=orthogonalEdgeStyle;rounded=0;orthogonalLoop=1;jettySize=auto;html=1;exitX=0.5;exitY=0;exitDx=0;exitDy=0;fontSize=18;startArrow=none;startFill=0;endArrow=none;endFill=0;" parent="1" source="Mq5N_yoMEjy944DCPWRL-12" edge="1">
          <mxGeometry relative="1" as="geometry">
            <mxPoint x="971.7142857142858" y="253.28571428571445" as="targetPoint" />
          </mxGeometry>
        </mxCell>
        <mxCell id="Mq5N_yoMEjy944DCPWRL-17" style="edgeStyle=orthogonalEdgeStyle;rounded=0;orthogonalLoop=1;jettySize=auto;html=1;fontSize=18;startArrow=none;startFill=0;endArrow=none;endFill=0;" parent="1" source="Mq5N_yoMEjy944DCPWRL-12" edge="1">
          <mxGeometry relative="1" as="geometry">
            <mxPoint x="972" y="626.1428571428573" as="targetPoint" />
          </mxGeometry>
        </mxCell>
        <mxCell id="Mq5N_yoMEjy944DCPWRL-12" value="등록" style="rhombus;whiteSpace=wrap;html=1;fontSize=18;" parent="1" vertex="1">
          <mxGeometry x="932" y="358" width="80" height="138.5" as="geometry" />
        </mxCell>
        <mxCell id="Mq5N_yoMEjy944DCPWRL-18" value="title" style="ellipse;whiteSpace=wrap;html=1;fontSize=18;" parent="1" vertex="1">
          <mxGeometry x="717" y="773" width="120" height="80" as="geometry" />
        </mxCell>
        <mxCell id="nJh2HOXDiCwI-dM-DZZD-2" style="edgeStyle=orthogonalEdgeStyle;rounded=0;orthogonalLoop=1;jettySize=auto;html=1;entryX=0.5;entryY=1;entryDx=0;entryDy=0;fontSize=18;startArrow=none;startFill=0;endArrow=none;endFill=0;" parent="1" source="Mq5N_yoMEjy944DCPWRL-19" target="dogVS2qwlswz8s6yhBNq-1" edge="1">
          <mxGeometry relative="1" as="geometry" />
        </mxCell>
        <mxCell id="Mq5N_yoMEjy944DCPWRL-19" value="content" style="ellipse;whiteSpace=wrap;html=1;fontSize=18;" parent="1" vertex="1">
          <mxGeometry x="918" y="779" width="120" height="80" as="geometry" />
        </mxCell>
        <mxCell id="Mq5N_yoMEjy944DCPWRL-20" value="delete_flag" style="ellipse;whiteSpace=wrap;html=1;fontSize=18;" parent="1" vertex="1">
          <mxGeometry x="1132" y="773" width="120" height="80" as="geometry" />
        </mxCell>
        <mxCell id="LV7k1WXTUxdXTYQNheNk-2" value="" style="endArrow=none;html=1;rounded=0;fontSize=18;entryX=0;entryY=0.5;entryDx=0;entryDy=0;" parent="1" target="dogVS2qwlswz8s6yhBNq-1" edge="1">
          <mxGeometry width="50" height="50" relative="1" as="geometry">
            <mxPoint x="826" y="610" as="sourcePoint" />
            <mxPoint x="876" y="560" as="targetPoint" />
          </mxGeometry>
        </mxCell>
        <mxCell id="LV7k1WXTUxdXTYQNheNk-3" value="" style="endArrow=none;html=1;rounded=0;fontSize=18;exitX=1;exitY=0;exitDx=0;exitDy=0;" parent="1" source="Mq5N_yoMEjy944DCPWRL-18" edge="1">
          <mxGeometry width="50" height="50" relative="1" as="geometry">
            <mxPoint x="863" y="718" as="sourcePoint" />
            <mxPoint x="917" y="662" as="targetPoint" />
          </mxGeometry>
        </mxCell>
        <mxCell id="LV7k1WXTUxdXTYQNheNk-6" value="" style="endArrow=none;html=1;rounded=0;fontSize=18;entryX=1;entryY=0.5;entryDx=0;entryDy=0;" parent="1" source="Mq5N_yoMEjy944DCPWRL-20" edge="1">
          <mxGeometry width="50" height="50" relative="1" as="geometry">
            <mxPoint x="1104" y="784" as="sourcePoint" />
            <mxPoint x="1038" y="660" as="targetPoint" />
          </mxGeometry>
        </mxCell>
        <mxCell id="LV7k1WXTUxdXTYQNheNk-9" value="" style="endArrow=none;html=1;rounded=0;fontSize=18;" parent="1" edge="1">
          <mxGeometry width="50" height="50" relative="1" as="geometry">
            <mxPoint x="1038" y="660" as="sourcePoint" />
            <mxPoint x="1193" y="610" as="targetPoint" />
          </mxGeometry>
        </mxCell>
        <mxCell id="dVOxvHdXbl_PbXCVg8bn-1" value="1" style="text;html=1;strokeColor=none;fillColor=none;align=center;verticalAlign=middle;whiteSpace=wrap;rounded=0;" parent="1" vertex="1">
          <mxGeometry x="387" y="181" width="60" height="30" as="geometry" />
        </mxCell>
        <mxCell id="dVOxvHdXbl_PbXCVg8bn-2" value="N" style="text;html=1;strokeColor=none;fillColor=none;align=center;verticalAlign=middle;whiteSpace=wrap;rounded=0;" parent="1" vertex="1">
          <mxGeometry x="837" y="176" width="60" height="30" as="geometry" />
        </mxCell>
        <mxCell id="dVOxvHdXbl_PbXCVg8bn-3" value="1" style="text;html=1;strokeColor=none;fillColor=none;align=center;verticalAlign=middle;whiteSpace=wrap;rounded=0;" parent="1" vertex="1">
          <mxGeometry x="887" y="277" width="60" height="30" as="geometry" />
        </mxCell>
        <mxCell id="dVOxvHdXbl_PbXCVg8bn-4" value="N" style="text;html=1;strokeColor=none;fillColor=none;align=center;verticalAlign=middle;whiteSpace=wrap;rounded=0;" parent="1" vertex="1">
          <mxGeometry x="887" y="536" width="60" height="30" as="geometry" />
        </mxCell>
        <mxCell id="dVOxvHdXbl_PbXCVg8bn-5" value="1" style="text;html=1;strokeColor=none;fillColor=none;align=center;verticalAlign=middle;whiteSpace=wrap;rounded=0;" parent="1" vertex="1">
          <mxGeometry x="328" y="293" width="60" height="30" as="geometry" />
        </mxCell>
        <mxCell id="dVOxvHdXbl_PbXCVg8bn-6" value="N" style="text;html=1;strokeColor=none;fillColor=none;align=center;verticalAlign=middle;whiteSpace=wrap;rounded=0;" parent="1" vertex="1">
          <mxGeometry x="327" y="562" width="60" height="30" as="geometry" />
        </mxCell>
      </root>
    </mxGraphModel>
  </diagram>
  <diagram id="54wXolZ2YaDY-muEby7d" name="Page-13">
    <mxGraphModel dx="965" dy="597" grid="0" gridSize="10" guides="1" tooltips="1" connect="1" arrows="1" fold="1" page="1" pageScale="1" pageWidth="2339" pageHeight="3300" math="0" shadow="0">
      <root>
        <mxCell id="0" />
        <mxCell id="1" parent="0" />
        <mxCell id="7QPk-GzNJj5Nbc3UDKOM-8" style="edgeStyle=orthogonalEdgeStyle;rounded=0;orthogonalLoop=1;jettySize=auto;html=1;exitX=1;exitY=0.5;exitDx=0;exitDy=0;entryX=0;entryY=0.5;entryDx=0;entryDy=0;fontSize=28;startArrow=classic;startFill=1;" parent="1" source="7QPk-GzNJj5Nbc3UDKOM-1" target="7QPk-GzNJj5Nbc3UDKOM-3" edge="1">
          <mxGeometry relative="1" as="geometry" />
        </mxCell>
        <mxCell id="7QPk-GzNJj5Nbc3UDKOM-1" value="&lt;font style=&quot;font-size: 28px&quot;&gt;Client&lt;/font&gt;" style="rounded=0;whiteSpace=wrap;html=1;" parent="1" vertex="1">
          <mxGeometry x="114" y="494" width="233" height="135" as="geometry" />
        </mxCell>
        <mxCell id="7QPk-GzNJj5Nbc3UDKOM-9" style="edgeStyle=orthogonalEdgeStyle;rounded=0;orthogonalLoop=1;jettySize=auto;html=1;fontSize=28;startArrow=classic;startFill=1;" parent="1" source="7QPk-GzNJj5Nbc3UDKOM-3" target="7QPk-GzNJj5Nbc3UDKOM-4" edge="1">
          <mxGeometry relative="1" as="geometry" />
        </mxCell>
        <mxCell id="7QPk-GzNJj5Nbc3UDKOM-3" value="&lt;font style=&quot;font-size: 28px&quot;&gt;Controller&lt;/font&gt;" style="rounded=0;whiteSpace=wrap;html=1;" parent="1" vertex="1">
          <mxGeometry x="536" y="494" width="233" height="135" as="geometry" />
        </mxCell>
        <mxCell id="7QPk-GzNJj5Nbc3UDKOM-11" style="edgeStyle=orthogonalEdgeStyle;rounded=0;orthogonalLoop=1;jettySize=auto;html=1;entryX=0;entryY=0.5;entryDx=0;entryDy=0;fontSize=28;startArrow=classic;startFill=1;" parent="1" source="7QPk-GzNJj5Nbc3UDKOM-4" target="7QPk-GzNJj5Nbc3UDKOM-5" edge="1">
          <mxGeometry relative="1" as="geometry" />
        </mxCell>
        <mxCell id="7QPk-GzNJj5Nbc3UDKOM-4" value="&lt;font style=&quot;font-size: 28px&quot;&gt;Service&lt;/font&gt;" style="rounded=0;whiteSpace=wrap;html=1;" parent="1" vertex="1">
          <mxGeometry x="937" y="494" width="233" height="135" as="geometry" />
        </mxCell>
        <mxCell id="7QPk-GzNJj5Nbc3UDKOM-12" style="edgeStyle=orthogonalEdgeStyle;rounded=0;orthogonalLoop=1;jettySize=auto;html=1;exitX=1;exitY=0.5;exitDx=0;exitDy=0;fontSize=28;startArrow=classic;startFill=1;" parent="1" source="7QPk-GzNJj5Nbc3UDKOM-5" edge="1">
          <mxGeometry relative="1" as="geometry">
            <mxPoint x="1726" y="560" as="targetPoint" />
          </mxGeometry>
        </mxCell>
        <mxCell id="7QPk-GzNJj5Nbc3UDKOM-5" value="&lt;font style=&quot;font-size: 28px&quot;&gt;Repository&lt;/font&gt;" style="rounded=0;whiteSpace=wrap;html=1;" parent="1" vertex="1">
          <mxGeometry x="1338" y="493" width="233" height="135" as="geometry" />
        </mxCell>
        <mxCell id="7QPk-GzNJj5Nbc3UDKOM-6" value="DataBase" style="shape=cylinder3;whiteSpace=wrap;html=1;boundedLbl=1;backgroundOutline=1;size=15;fontSize=28;" parent="1" vertex="1">
          <mxGeometry x="1728" y="484.5" width="148" height="154" as="geometry" />
        </mxCell>
        <mxCell id="7QPk-GzNJj5Nbc3UDKOM-13" value="DTO" style="text;html=1;strokeColor=none;fillColor=none;align=center;verticalAlign=middle;whiteSpace=wrap;rounded=0;fontSize=28;" parent="1" vertex="1">
          <mxGeometry x="382" y="503" width="104" height="46" as="geometry" />
        </mxCell>
        <mxCell id="7QPk-GzNJj5Nbc3UDKOM-14" value="DTO" style="text;html=1;strokeColor=none;fillColor=none;align=center;verticalAlign=middle;whiteSpace=wrap;rounded=0;fontSize=28;" parent="1" vertex="1">
          <mxGeometry x="796" y="493" width="104" height="46" as="geometry" />
        </mxCell>
        <mxCell id="7QPk-GzNJj5Nbc3UDKOM-15" value="Entity" style="text;html=1;strokeColor=none;fillColor=none;align=center;verticalAlign=middle;whiteSpace=wrap;rounded=0;fontSize=28;" parent="1" vertex="1">
          <mxGeometry x="1197" y="494" width="104" height="46" as="geometry" />
        </mxCell>
        <mxCell id="7QPk-GzNJj5Nbc3UDKOM-16" value="Entity" style="text;html=1;strokeColor=none;fillColor=none;align=center;verticalAlign=middle;whiteSpace=wrap;rounded=0;fontSize=28;" parent="1" vertex="1">
          <mxGeometry x="1598" y="493" width="104" height="46" as="geometry" />
        </mxCell>
      </root>
    </mxGraphModel>
  </diagram>
  <diagram id="n7Zn6q-BX8FQ_LR45N3c" name="Page-14">
    <mxGraphModel dx="1930" dy="1194" grid="0" gridSize="10" guides="1" tooltips="1" connect="1" arrows="1" fold="1" page="1" pageScale="1" pageWidth="3300" pageHeight="4681" math="0" shadow="0">
      <root>
        <mxCell id="0" />
        <mxCell id="1" parent="0" />
        <mxCell id="vbIOW6Qqz1qie8O0OvLm-1" value="&lt;span style=&quot;font-size: 18px&quot;&gt;member&lt;/span&gt;" style="rounded=0;whiteSpace=wrap;html=1;" vertex="1" parent="1">
          <mxGeometry x="505" y="378" width="120" height="60" as="geometry" />
        </mxCell>
        <mxCell id="vbIOW6Qqz1qie8O0OvLm-2" value="password" style="ellipse;whiteSpace=wrap;html=1;fontSize=18;" vertex="1" parent="1">
          <mxGeometry x="270" y="306" width="120" height="80" as="geometry" />
        </mxCell>
        <mxCell id="vbIOW6Qqz1qie8O0OvLm-3" value="email" style="ellipse;whiteSpace=wrap;html=1;fontSize=18;" vertex="1" parent="1">
          <mxGeometry x="345" y="514" width="120" height="80" as="geometry" />
        </mxCell>
        <mxCell id="vbIOW6Qqz1qie8O0OvLm-4" value="name" style="ellipse;whiteSpace=wrap;html=1;fontSize=18;" vertex="1" parent="1">
          <mxGeometry x="270" y="410" width="120" height="80" as="geometry" />
        </mxCell>
        <mxCell id="vbIOW6Qqz1qie8O0OvLm-5" value="&lt;u&gt;member_id&lt;/u&gt;" style="ellipse;whiteSpace=wrap;html=1;fontSize=18;" vertex="1" parent="1">
          <mxGeometry x="345" y="209" width="120" height="80" as="geometry" />
        </mxCell>
        <mxCell id="vbIOW6Qqz1qie8O0OvLm-6" value="" style="endArrow=none;html=1;rounded=0;fontSize=18;entryX=0;entryY=0;entryDx=0;entryDy=0;exitX=1;exitY=1;exitDx=0;exitDy=0;" edge="1" parent="1" source="vbIOW6Qqz1qie8O0OvLm-5" target="vbIOW6Qqz1qie8O0OvLm-1">
          <mxGeometry width="50" height="50" relative="1" as="geometry">
            <mxPoint x="469" y="343" as="sourcePoint" />
            <mxPoint x="519" y="293" as="targetPoint" />
          </mxGeometry>
        </mxCell>
        <mxCell id="vbIOW6Qqz1qie8O0OvLm-7" value="" style="endArrow=none;html=1;rounded=0;fontSize=18;entryX=0;entryY=0.25;entryDx=0;entryDy=0;" edge="1" parent="1" target="vbIOW6Qqz1qie8O0OvLm-1">
          <mxGeometry width="50" height="50" relative="1" as="geometry">
            <mxPoint x="391" y="350.0000000000001" as="sourcePoint" />
            <mxPoint x="455" y="343" as="targetPoint" />
          </mxGeometry>
        </mxCell>
        <mxCell id="vbIOW6Qqz1qie8O0OvLm-8" value="" style="endArrow=none;html=1;rounded=0;fontSize=18;" edge="1" parent="1">
          <mxGeometry width="50" height="50" relative="1" as="geometry">
            <mxPoint x="392" y="446" as="sourcePoint" />
            <mxPoint x="503" y="410" as="targetPoint" />
          </mxGeometry>
        </mxCell>
        <mxCell id="vbIOW6Qqz1qie8O0OvLm-9" value="" style="endArrow=none;html=1;rounded=0;fontSize=18;entryX=0;entryY=1;entryDx=0;entryDy=0;" edge="1" parent="1" target="vbIOW6Qqz1qie8O0OvLm-1">
          <mxGeometry width="50" height="50" relative="1" as="geometry">
            <mxPoint x="433" y="519" as="sourcePoint" />
            <mxPoint x="483" y="469" as="targetPoint" />
          </mxGeometry>
        </mxCell>
        <mxCell id="vbIOW6Qqz1qie8O0OvLm-10" value="issue" style="rounded=0;whiteSpace=wrap;html=1;fontSize=18;" vertex="1" parent="1">
          <mxGeometry x="1166" y="378" width="120" height="60" as="geometry" />
        </mxCell>
        <mxCell id="vbIOW6Qqz1qie8O0OvLm-11" style="edgeStyle=orthogonalEdgeStyle;rounded=0;orthogonalLoop=1;jettySize=auto;html=1;fontSize=18;startArrow=none;startFill=0;endArrow=none;endFill=0;" edge="1" parent="1" source="vbIOW6Qqz1qie8O0OvLm-12">
          <mxGeometry relative="1" as="geometry">
            <mxPoint x="1163.2857142857142" y="408.9999999999998" as="targetPoint" />
          </mxGeometry>
        </mxCell>
        <mxCell id="vbIOW6Qqz1qie8O0OvLm-12" value="작성" style="rhombus;whiteSpace=wrap;html=1;fontSize=18;" vertex="1" parent="1">
          <mxGeometry x="841" y="380" width="137" height="58" as="geometry" />
        </mxCell>
        <mxCell id="vbIOW6Qqz1qie8O0OvLm-13" value="" style="endArrow=none;html=1;rounded=0;fontSize=18;entryX=0;entryY=0.5;entryDx=0;entryDy=0;" edge="1" parent="1" target="vbIOW6Qqz1qie8O0OvLm-12">
          <mxGeometry width="50" height="50" relative="1" as="geometry">
            <mxPoint x="626" y="409" as="sourcePoint" />
            <mxPoint x="678" y="383" as="targetPoint" />
          </mxGeometry>
        </mxCell>
        <mxCell id="vbIOW6Qqz1qie8O0OvLm-85" style="edgeStyle=none;rounded=0;orthogonalLoop=1;jettySize=auto;html=1;exitX=0;exitY=0.5;exitDx=0;exitDy=0;endArrow=none;endFill=0;" edge="1" parent="1" source="vbIOW6Qqz1qie8O0OvLm-14">
          <mxGeometry relative="1" as="geometry">
            <mxPoint x="1238" y="372" as="targetPoint" />
          </mxGeometry>
        </mxCell>
        <mxCell id="vbIOW6Qqz1qie8O0OvLm-14" value="status" style="ellipse;whiteSpace=wrap;html=1;fontSize=18;" vertex="1" parent="1">
          <mxGeometry x="1708" y="99" width="117" height="76" as="geometry" />
        </mxCell>
        <mxCell id="vbIOW6Qqz1qie8O0OvLm-18" value="label" style="rounded=0;whiteSpace=wrap;html=1;fontSize=18;" vertex="1" parent="1">
          <mxGeometry x="1171" y="811" width="120" height="60" as="geometry" />
        </mxCell>
        <mxCell id="vbIOW6Qqz1qie8O0OvLm-89" style="edgeStyle=none;rounded=0;orthogonalLoop=1;jettySize=auto;html=1;exitX=1;exitY=0.5;exitDx=0;exitDy=0;endArrow=none;endFill=0;" edge="1" parent="1" source="vbIOW6Qqz1qie8O0OvLm-19">
          <mxGeometry relative="1" as="geometry">
            <mxPoint x="483.42855326334666" y="841.66685740153" as="targetPoint" />
          </mxGeometry>
        </mxCell>
        <mxCell id="vbIOW6Qqz1qie8O0OvLm-19" value="&lt;u&gt;issue_assignee_id&lt;/u&gt;" style="ellipse;whiteSpace=wrap;html=1;fontSize=18;" vertex="1" parent="1">
          <mxGeometry x="241" y="690" width="183" height="80" as="geometry" />
        </mxCell>
        <mxCell id="vbIOW6Qqz1qie8O0OvLm-91" style="edgeStyle=none;rounded=0;orthogonalLoop=1;jettySize=auto;html=1;exitX=1;exitY=0.5;exitDx=0;exitDy=0;entryX=0;entryY=0.5;entryDx=0;entryDy=0;endArrow=none;endFill=0;" edge="1" parent="1" source="vbIOW6Qqz1qie8O0OvLm-20" target="vbIOW6Qqz1qie8O0OvLm-25">
          <mxGeometry relative="1" as="geometry" />
        </mxCell>
        <mxCell id="vbIOW6Qqz1qie8O0OvLm-20" value="member_id" style="ellipse;whiteSpace=wrap;html=1;fontSize=18;" vertex="1" parent="1">
          <mxGeometry x="272.5" y="918" width="120" height="80" as="geometry" />
        </mxCell>
        <mxCell id="vbIOW6Qqz1qie8O0OvLm-99" style="edgeStyle=none;rounded=0;orthogonalLoop=1;jettySize=auto;html=1;entryX=0;entryY=0.5;entryDx=0;entryDy=0;endArrow=none;endFill=0;" edge="1" parent="1" source="vbIOW6Qqz1qie8O0OvLm-21" target="vbIOW6Qqz1qie8O0OvLm-18">
          <mxGeometry relative="1" as="geometry" />
        </mxCell>
        <mxCell id="vbIOW6Qqz1qie8O0OvLm-21" value="&lt;u&gt;label_id&lt;/u&gt;" style="ellipse;whiteSpace=wrap;html=1;fontSize=18;" vertex="1" parent="1">
          <mxGeometry x="931" y="707" width="120" height="80" as="geometry" />
        </mxCell>
        <mxCell id="vbIOW6Qqz1qie8O0OvLm-90" style="edgeStyle=none;rounded=0;orthogonalLoop=1;jettySize=auto;html=1;entryX=0;entryY=0.5;entryDx=0;entryDy=0;endArrow=none;endFill=0;" edge="1" parent="1" source="vbIOW6Qqz1qie8O0OvLm-23" target="vbIOW6Qqz1qie8O0OvLm-25">
          <mxGeometry relative="1" as="geometry" />
        </mxCell>
        <mxCell id="vbIOW6Qqz1qie8O0OvLm-23" value="issue_id" style="ellipse;whiteSpace=wrap;html=1;fontSize=18;" vertex="1" parent="1">
          <mxGeometry x="261" y="796" width="129" height="80" as="geometry" />
        </mxCell>
        <mxCell id="vbIOW6Qqz1qie8O0OvLm-25" value="issue_assignee" style="rounded=0;whiteSpace=wrap;html=1;fontSize=18;" vertex="1" parent="1">
          <mxGeometry x="484" y="811" width="161" height="60" as="geometry" />
        </mxCell>
        <mxCell id="vbIOW6Qqz1qie8O0OvLm-28" style="edgeStyle=orthogonalEdgeStyle;rounded=0;orthogonalLoop=1;jettySize=auto;html=1;entryX=0.5;entryY=1;entryDx=0;entryDy=0;fontSize=18;startArrow=none;startFill=0;endArrow=none;endFill=0;" edge="1" parent="1" source="vbIOW6Qqz1qie8O0OvLm-30" target="vbIOW6Qqz1qie8O0OvLm-1">
          <mxGeometry relative="1" as="geometry" />
        </mxCell>
        <mxCell id="vbIOW6Qqz1qie8O0OvLm-29" style="edgeStyle=orthogonalEdgeStyle;rounded=0;orthogonalLoop=1;jettySize=auto;html=1;entryX=0.5;entryY=0;entryDx=0;entryDy=0;fontSize=18;startArrow=none;startFill=0;endArrow=none;endFill=0;" edge="1" parent="1" source="vbIOW6Qqz1qie8O0OvLm-30" target="vbIOW6Qqz1qie8O0OvLm-25">
          <mxGeometry relative="1" as="geometry" />
        </mxCell>
        <mxCell id="vbIOW6Qqz1qie8O0OvLm-30" value="배정" style="rhombus;whiteSpace=wrap;html=1;fontSize=18;" vertex="1" parent="1">
          <mxGeometry x="525" y="550" width="80" height="133" as="geometry" />
        </mxCell>
        <mxCell id="vbIOW6Qqz1qie8O0OvLm-37" style="edgeStyle=orthogonalEdgeStyle;rounded=0;orthogonalLoop=1;jettySize=auto;html=1;exitX=0.5;exitY=0;exitDx=0;exitDy=0;fontSize=18;startArrow=none;startFill=0;endArrow=none;endFill=0;" edge="1" parent="1" source="vbIOW6Qqz1qie8O0OvLm-39">
          <mxGeometry relative="1" as="geometry">
            <mxPoint x="1224.7142857142858" y="436.28571428571445" as="targetPoint" />
          </mxGeometry>
        </mxCell>
        <mxCell id="vbIOW6Qqz1qie8O0OvLm-38" style="edgeStyle=orthogonalEdgeStyle;rounded=0;orthogonalLoop=1;jettySize=auto;html=1;fontSize=18;startArrow=none;startFill=0;endArrow=none;endFill=0;" edge="1" parent="1" source="vbIOW6Qqz1qie8O0OvLm-39">
          <mxGeometry relative="1" as="geometry">
            <mxPoint x="1225" y="809.1428571428573" as="targetPoint" />
          </mxGeometry>
        </mxCell>
        <mxCell id="vbIOW6Qqz1qie8O0OvLm-39" value="등록" style="rhombus;whiteSpace=wrap;html=1;fontSize=18;" vertex="1" parent="1">
          <mxGeometry x="1185" y="541" width="80" height="138.5" as="geometry" />
        </mxCell>
        <mxCell id="vbIOW6Qqz1qie8O0OvLm-100" style="edgeStyle=none;rounded=0;orthogonalLoop=1;jettySize=auto;html=1;exitX=1;exitY=0.5;exitDx=0;exitDy=0;entryX=0;entryY=0.5;entryDx=0;entryDy=0;endArrow=none;endFill=0;" edge="1" parent="1" source="vbIOW6Qqz1qie8O0OvLm-40" target="vbIOW6Qqz1qie8O0OvLm-18">
          <mxGeometry relative="1" as="geometry" />
        </mxCell>
        <mxCell id="vbIOW6Qqz1qie8O0OvLm-40" value="name" style="ellipse;whiteSpace=wrap;html=1;fontSize=18;" vertex="1" parent="1">
          <mxGeometry x="849.5" y="791" width="120" height="80" as="geometry" />
        </mxCell>
        <mxCell id="vbIOW6Qqz1qie8O0OvLm-101" style="edgeStyle=none;rounded=0;orthogonalLoop=1;jettySize=auto;html=1;exitX=1;exitY=0;exitDx=0;exitDy=0;entryX=0;entryY=0.5;entryDx=0;entryDy=0;endArrow=none;endFill=0;" edge="1" parent="1" source="vbIOW6Qqz1qie8O0OvLm-42" target="vbIOW6Qqz1qie8O0OvLm-18">
          <mxGeometry relative="1" as="geometry" />
        </mxCell>
        <mxCell id="vbIOW6Qqz1qie8O0OvLm-42" value="description" style="ellipse;whiteSpace=wrap;html=1;fontSize=18;" vertex="1" parent="1">
          <mxGeometry x="931" y="893" width="120" height="80" as="geometry" />
        </mxCell>
        <mxCell id="vbIOW6Qqz1qie8O0OvLm-48" value="1" style="text;html=1;strokeColor=none;fillColor=none;align=center;verticalAlign=middle;whiteSpace=wrap;rounded=0;" vertex="1" parent="1">
          <mxGeometry x="767" y="360" width="60" height="30" as="geometry" />
        </mxCell>
        <mxCell id="vbIOW6Qqz1qie8O0OvLm-49" value="N" style="text;html=1;strokeColor=none;fillColor=none;align=center;verticalAlign=middle;whiteSpace=wrap;rounded=0;" vertex="1" parent="1">
          <mxGeometry x="996" y="367" width="60" height="30" as="geometry" />
        </mxCell>
        <mxCell id="vbIOW6Qqz1qie8O0OvLm-50" value="N" style="text;html=1;strokeColor=none;fillColor=none;align=center;verticalAlign=middle;whiteSpace=wrap;rounded=0;" vertex="1" parent="1">
          <mxGeometry x="1137" y="514" width="60" height="30" as="geometry" />
        </mxCell>
        <mxCell id="vbIOW6Qqz1qie8O0OvLm-51" value="M" style="text;html=1;strokeColor=none;fillColor=none;align=center;verticalAlign=middle;whiteSpace=wrap;rounded=0;" vertex="1" parent="1">
          <mxGeometry x="1144" y="679.5" width="60" height="30" as="geometry" />
        </mxCell>
        <mxCell id="vbIOW6Qqz1qie8O0OvLm-52" value="1" style="text;html=1;strokeColor=none;fillColor=none;align=center;verticalAlign=middle;whiteSpace=wrap;rounded=0;" vertex="1" parent="1">
          <mxGeometry x="578" y="501" width="60" height="30" as="geometry" />
        </mxCell>
        <mxCell id="vbIOW6Qqz1qie8O0OvLm-53" value="1" style="text;html=1;strokeColor=none;fillColor=none;align=center;verticalAlign=middle;whiteSpace=wrap;rounded=0;" vertex="1" parent="1">
          <mxGeometry x="573" y="695" width="60" height="30" as="geometry" />
        </mxCell>
        <mxCell id="vbIOW6Qqz1qie8O0OvLm-71" style="edgeStyle=none;rounded=0;orthogonalLoop=1;jettySize=auto;html=1;exitX=1;exitY=1;exitDx=0;exitDy=0;entryX=0;entryY=0.25;entryDx=0;entryDy=0;endArrow=none;endFill=0;" edge="1" parent="1" source="vbIOW6Qqz1qie8O0OvLm-54" target="vbIOW6Qqz1qie8O0OvLm-10">
          <mxGeometry relative="1" as="geometry" />
        </mxCell>
        <mxCell id="vbIOW6Qqz1qie8O0OvLm-54" value="&lt;u&gt;issue_id&lt;/u&gt;" style="ellipse;whiteSpace=wrap;html=1;fontSize=18;" vertex="1" parent="1">
          <mxGeometry x="726" y="225" width="120" height="81" as="geometry" />
        </mxCell>
        <mxCell id="vbIOW6Qqz1qie8O0OvLm-86" style="edgeStyle=none;rounded=0;orthogonalLoop=1;jettySize=auto;html=1;exitX=0.5;exitY=1;exitDx=0;exitDy=0;endArrow=none;endFill=0;" edge="1" parent="1" source="vbIOW6Qqz1qie8O0OvLm-56">
          <mxGeometry relative="1" as="geometry">
            <mxPoint x="1225.3333333333335" y="375.9524917602539" as="targetPoint" />
          </mxGeometry>
        </mxCell>
        <mxCell id="vbIOW6Qqz1qie8O0OvLm-56" value="issue_number" style="ellipse;whiteSpace=wrap;html=1;fontSize=18;" vertex="1" parent="1">
          <mxGeometry x="1154" y="8" width="142" height="80" as="geometry" />
        </mxCell>
        <mxCell id="vbIOW6Qqz1qie8O0OvLm-83" style="edgeStyle=none;rounded=0;orthogonalLoop=1;jettySize=auto;html=1;exitX=0;exitY=1;exitDx=0;exitDy=0;endArrow=none;endFill=0;entryX=0.5;entryY=0;entryDx=0;entryDy=0;" edge="1" parent="1" source="vbIOW6Qqz1qie8O0OvLm-57" target="vbIOW6Qqz1qie8O0OvLm-10">
          <mxGeometry relative="1" as="geometry">
            <mxPoint x="1251.0475209554038" y="375.9524917602539" as="targetPoint" />
          </mxGeometry>
        </mxCell>
        <mxCell id="vbIOW6Qqz1qie8O0OvLm-57" value="subject" style="ellipse;whiteSpace=wrap;html=1;fontSize=18;" vertex="1" parent="1">
          <mxGeometry x="1313" y="8" width="135" height="80" as="geometry" />
        </mxCell>
        <mxCell id="vbIOW6Qqz1qie8O0OvLm-67" style="edgeStyle=none;rounded=0;orthogonalLoop=1;jettySize=auto;html=1;exitX=0;exitY=1;exitDx=0;exitDy=0;entryX=0.5;entryY=0;entryDx=0;entryDy=0;endArrow=none;endFill=0;" edge="1" parent="1" source="vbIOW6Qqz1qie8O0OvLm-58" target="vbIOW6Qqz1qie8O0OvLm-10">
          <mxGeometry relative="1" as="geometry" />
        </mxCell>
        <mxCell id="vbIOW6Qqz1qie8O0OvLm-58" value="description" style="ellipse;whiteSpace=wrap;html=1;fontSize=18;" vertex="1" parent="1">
          <mxGeometry x="1468.5" y="19" width="135" height="80" as="geometry" />
        </mxCell>
        <mxCell id="vbIOW6Qqz1qie8O0OvLm-84" style="edgeStyle=none;rounded=0;orthogonalLoop=1;jettySize=auto;html=1;exitX=0;exitY=1;exitDx=0;exitDy=0;endArrow=none;endFill=0;" edge="1" parent="1" source="vbIOW6Qqz1qie8O0OvLm-59">
          <mxGeometry relative="1" as="geometry">
            <mxPoint x="1235" y="376" as="targetPoint" />
          </mxGeometry>
        </mxCell>
        <mxCell id="vbIOW6Qqz1qie8O0OvLm-59" value="writer" style="ellipse;whiteSpace=wrap;html=1;fontSize=18;" vertex="1" parent="1">
          <mxGeometry x="1613" y="19" width="135" height="80" as="geometry" />
        </mxCell>
        <mxCell id="vbIOW6Qqz1qie8O0OvLm-87" style="edgeStyle=none;rounded=0;orthogonalLoop=1;jettySize=auto;html=1;endArrow=none;endFill=0;" edge="1" parent="1" source="vbIOW6Qqz1qie8O0OvLm-60">
          <mxGeometry relative="1" as="geometry">
            <mxPoint x="1226" y="376" as="targetPoint" />
          </mxGeometry>
        </mxCell>
        <mxCell id="vbIOW6Qqz1qie8O0OvLm-60" value="image_path" style="ellipse;whiteSpace=wrap;html=1;fontSize=18;" vertex="1" parent="1">
          <mxGeometry x="1729" y="183" width="135" height="80" as="geometry" />
        </mxCell>
        <mxCell id="vbIOW6Qqz1qie8O0OvLm-88" style="edgeStyle=none;rounded=0;orthogonalLoop=1;jettySize=auto;html=1;endArrow=none;endFill=0;" edge="1" parent="1" source="vbIOW6Qqz1qie8O0OvLm-61">
          <mxGeometry relative="1" as="geometry">
            <mxPoint x="1233" y="373" as="targetPoint" />
          </mxGeometry>
        </mxCell>
        <mxCell id="vbIOW6Qqz1qie8O0OvLm-61" value="created_datetime" style="ellipse;whiteSpace=wrap;html=1;fontSize=18;" vertex="1" parent="1">
          <mxGeometry x="1708" y="271" width="159" height="80" as="geometry" />
        </mxCell>
        <mxCell id="vbIOW6Qqz1qie8O0OvLm-79" style="edgeStyle=none;rounded=0;orthogonalLoop=1;jettySize=auto;html=1;exitX=1;exitY=1;exitDx=0;exitDy=0;entryX=0;entryY=0;entryDx=0;entryDy=0;endArrow=none;endFill=0;" edge="1" parent="1" source="vbIOW6Qqz1qie8O0OvLm-75" target="vbIOW6Qqz1qie8O0OvLm-10">
          <mxGeometry relative="1" as="geometry" />
        </mxCell>
        <mxCell id="vbIOW6Qqz1qie8O0OvLm-75" value="member_id" style="ellipse;whiteSpace=wrap;html=1;fontSize=18;" vertex="1" parent="1">
          <mxGeometry x="775" y="140" width="135" height="74" as="geometry" />
        </mxCell>
        <mxCell id="vbIOW6Qqz1qie8O0OvLm-80" style="edgeStyle=none;rounded=0;orthogonalLoop=1;jettySize=auto;html=1;exitX=1;exitY=1;exitDx=0;exitDy=0;entryX=0.25;entryY=0;entryDx=0;entryDy=0;endArrow=none;endFill=0;" edge="1" parent="1" source="vbIOW6Qqz1qie8O0OvLm-76" target="vbIOW6Qqz1qie8O0OvLm-10">
          <mxGeometry relative="1" as="geometry" />
        </mxCell>
        <mxCell id="vbIOW6Qqz1qie8O0OvLm-76" value="&lt;span style=&quot;&quot;&gt;label_id&lt;/span&gt;" style="ellipse;whiteSpace=wrap;html=1;fontSize=18;" vertex="1" parent="1">
          <mxGeometry x="861" y="53" width="135" height="72" as="geometry" />
        </mxCell>
        <mxCell id="vbIOW6Qqz1qie8O0OvLm-81" style="edgeStyle=none;rounded=0;orthogonalLoop=1;jettySize=auto;html=1;exitX=0.5;exitY=1;exitDx=0;exitDy=0;endArrow=none;endFill=0;" edge="1" parent="1" source="vbIOW6Qqz1qie8O0OvLm-78" target="vbIOW6Qqz1qie8O0OvLm-10">
          <mxGeometry relative="1" as="geometry" />
        </mxCell>
        <mxCell id="vbIOW6Qqz1qie8O0OvLm-78" value="milestone_id" style="ellipse;whiteSpace=wrap;html=1;fontSize=18;" vertex="1" parent="1">
          <mxGeometry x="1005" y="15" width="135" height="80" as="geometry" />
        </mxCell>
        <mxCell id="vbIOW6Qqz1qie8O0OvLm-95" style="edgeStyle=none;rounded=0;orthogonalLoop=1;jettySize=auto;html=1;exitX=0.5;exitY=1;exitDx=0;exitDy=0;entryX=0.75;entryY=0;entryDx=0;entryDy=0;endArrow=none;endFill=0;" edge="1" parent="1" source="vbIOW6Qqz1qie8O0OvLm-94" target="vbIOW6Qqz1qie8O0OvLm-25">
          <mxGeometry relative="1" as="geometry" />
        </mxCell>
        <mxCell id="vbIOW6Qqz1qie8O0OvLm-96" style="edgeStyle=none;rounded=0;orthogonalLoop=1;jettySize=auto;html=1;exitX=0.5;exitY=0;exitDx=0;exitDy=0;entryX=0;entryY=0.5;entryDx=0;entryDy=0;endArrow=none;endFill=0;" edge="1" parent="1" source="vbIOW6Qqz1qie8O0OvLm-94" target="vbIOW6Qqz1qie8O0OvLm-10">
          <mxGeometry relative="1" as="geometry" />
        </mxCell>
        <mxCell id="vbIOW6Qqz1qie8O0OvLm-94" value="배정" style="rhombus;whiteSpace=wrap;html=1;fontSize=18;rotation=50;" vertex="1" parent="1">
          <mxGeometry x="827" y="537" width="80" height="133" as="geometry" />
        </mxCell>
        <mxCell id="vbIOW6Qqz1qie8O0OvLm-97" value="N" style="text;html=1;strokeColor=none;fillColor=none;align=center;verticalAlign=middle;whiteSpace=wrap;rounded=0;" vertex="1" parent="1">
          <mxGeometry x="743" y="627" width="60" height="30" as="geometry" />
        </mxCell>
        <mxCell id="vbIOW6Qqz1qie8O0OvLm-98" value="1" style="text;html=1;strokeColor=none;fillColor=none;align=center;verticalAlign=middle;whiteSpace=wrap;rounded=0;" vertex="1" parent="1">
          <mxGeometry x="887" y="501" width="60" height="30" as="geometry" />
        </mxCell>
        <mxCell id="vbIOW6Qqz1qie8O0OvLm-104" style="edgeStyle=none;rounded=0;orthogonalLoop=1;jettySize=auto;html=1;exitX=0.5;exitY=0;exitDx=0;exitDy=0;entryX=1;entryY=1;entryDx=0;entryDy=0;endArrow=none;endFill=0;" edge="1" parent="1" source="vbIOW6Qqz1qie8O0OvLm-102" target="vbIOW6Qqz1qie8O0OvLm-10">
          <mxGeometry relative="1" as="geometry" />
        </mxCell>
        <mxCell id="vbIOW6Qqz1qie8O0OvLm-105" style="edgeStyle=none;rounded=0;orthogonalLoop=1;jettySize=auto;html=1;exitX=0.5;exitY=1;exitDx=0;exitDy=0;entryX=0;entryY=0;entryDx=0;entryDy=0;endArrow=none;endFill=0;" edge="1" parent="1" source="vbIOW6Qqz1qie8O0OvLm-102" target="vbIOW6Qqz1qie8O0OvLm-103">
          <mxGeometry relative="1" as="geometry" />
        </mxCell>
        <mxCell id="vbIOW6Qqz1qie8O0OvLm-102" value="등록" style="rhombus;whiteSpace=wrap;html=1;fontSize=18;rotation=-45;" vertex="1" parent="1">
          <mxGeometry x="1384" y="518.5" width="80" height="138.5" as="geometry" />
        </mxCell>
        <mxCell id="vbIOW6Qqz1qie8O0OvLm-103" value="milestone" style="rounded=0;whiteSpace=wrap;html=1;fontSize=18;" vertex="1" parent="1">
          <mxGeometry x="1590" y="766" width="120" height="58" as="geometry" />
        </mxCell>
        <mxCell id="vbIOW6Qqz1qie8O0OvLm-110" style="edgeStyle=none;rounded=0;orthogonalLoop=1;jettySize=auto;html=1;exitX=1;exitY=0;exitDx=0;exitDy=0;entryX=0;entryY=0.5;entryDx=0;entryDy=0;endArrow=none;endFill=0;" edge="1" parent="1" source="vbIOW6Qqz1qie8O0OvLm-106" target="vbIOW6Qqz1qie8O0OvLm-103">
          <mxGeometry relative="1" as="geometry" />
        </mxCell>
        <mxCell id="vbIOW6Qqz1qie8O0OvLm-106" value="&lt;u&gt;milestone_id&lt;/u&gt;" style="ellipse;whiteSpace=wrap;html=1;fontSize=18;" vertex="1" parent="1">
          <mxGeometry x="1359" y="866" width="120" height="80" as="geometry" />
        </mxCell>
        <mxCell id="vbIOW6Qqz1qie8O0OvLm-111" style="edgeStyle=none;rounded=0;orthogonalLoop=1;jettySize=auto;html=1;exitX=0.5;exitY=0;exitDx=0;exitDy=0;entryX=0.25;entryY=1;entryDx=0;entryDy=0;endArrow=none;endFill=0;" edge="1" parent="1" source="vbIOW6Qqz1qie8O0OvLm-107" target="vbIOW6Qqz1qie8O0OvLm-103">
          <mxGeometry relative="1" as="geometry" />
        </mxCell>
        <mxCell id="vbIOW6Qqz1qie8O0OvLm-107" value="subject" style="ellipse;whiteSpace=wrap;html=1;fontSize=18;" vertex="1" parent="1">
          <mxGeometry x="1503" y="923" width="120" height="80" as="geometry" />
        </mxCell>
        <mxCell id="vbIOW6Qqz1qie8O0OvLm-112" style="edgeStyle=none;rounded=0;orthogonalLoop=1;jettySize=auto;html=1;entryX=0.75;entryY=1;entryDx=0;entryDy=0;endArrow=none;endFill=0;" edge="1" parent="1" source="vbIOW6Qqz1qie8O0OvLm-108" target="vbIOW6Qqz1qie8O0OvLm-103">
          <mxGeometry relative="1" as="geometry" />
        </mxCell>
        <mxCell id="vbIOW6Qqz1qie8O0OvLm-108" value="description" style="ellipse;whiteSpace=wrap;html=1;fontSize=18;" vertex="1" parent="1">
          <mxGeometry x="1665" y="918" width="120" height="80" as="geometry" />
        </mxCell>
        <mxCell id="vbIOW6Qqz1qie8O0OvLm-113" style="edgeStyle=none;rounded=0;orthogonalLoop=1;jettySize=auto;html=1;exitX=0;exitY=0;exitDx=0;exitDy=0;entryX=1;entryY=0.5;entryDx=0;entryDy=0;endArrow=none;endFill=0;" edge="1" parent="1" source="vbIOW6Qqz1qie8O0OvLm-109" target="vbIOW6Qqz1qie8O0OvLm-103">
          <mxGeometry relative="1" as="geometry" />
        </mxCell>
        <mxCell id="vbIOW6Qqz1qie8O0OvLm-109" value="end_time" style="ellipse;whiteSpace=wrap;html=1;fontSize=18;" vertex="1" parent="1">
          <mxGeometry x="1849" y="866" width="120" height="80" as="geometry" />
        </mxCell>
        <mxCell id="vbIOW6Qqz1qie8O0OvLm-116" style="edgeStyle=none;rounded=0;orthogonalLoop=1;jettySize=auto;html=1;exitX=0;exitY=0.5;exitDx=0;exitDy=0;endArrow=none;endFill=0;" edge="1" parent="1" source="vbIOW6Qqz1qie8O0OvLm-115" target="vbIOW6Qqz1qie8O0OvLm-10">
          <mxGeometry relative="1" as="geometry" />
        </mxCell>
        <mxCell id="vbIOW6Qqz1qie8O0OvLm-115" value="댓글" style="rhombus;whiteSpace=wrap;html=1;fontSize=18;" vertex="1" parent="1">
          <mxGeometry x="1503" y="380" width="137" height="58" as="geometry" />
        </mxCell>
        <mxCell id="vbIOW6Qqz1qie8O0OvLm-118" style="edgeStyle=none;rounded=0;orthogonalLoop=1;jettySize=auto;html=1;exitX=0;exitY=0.5;exitDx=0;exitDy=0;endArrow=none;endFill=0;entryX=1;entryY=0.5;entryDx=0;entryDy=0;" edge="1" parent="1" source="vbIOW6Qqz1qie8O0OvLm-117" target="vbIOW6Qqz1qie8O0OvLm-115">
          <mxGeometry relative="1" as="geometry">
            <mxPoint x="1613" y="409" as="targetPoint" />
          </mxGeometry>
        </mxCell>
        <mxCell id="vbIOW6Qqz1qie8O0OvLm-117" value="reply" style="rounded=0;whiteSpace=wrap;html=1;fontSize=18;" vertex="1" parent="1">
          <mxGeometry x="1882" y="381" width="120" height="58" as="geometry" />
        </mxCell>
        <mxCell id="Al-cUA6ZiyIrBN0V2M45-6" style="edgeStyle=none;rounded=0;orthogonalLoop=1;jettySize=auto;html=1;exitX=0;exitY=1;exitDx=0;exitDy=0;entryX=0.75;entryY=0;entryDx=0;entryDy=0;endArrow=none;endFill=0;" edge="1" parent="1" source="vbIOW6Qqz1qie8O0OvLm-119" target="vbIOW6Qqz1qie8O0OvLm-117">
          <mxGeometry relative="1" as="geometry" />
        </mxCell>
        <mxCell id="vbIOW6Qqz1qie8O0OvLm-119" value="&lt;u&gt;reply_id&lt;/u&gt;" style="ellipse;whiteSpace=wrap;html=1;fontSize=18;" vertex="1" parent="1">
          <mxGeometry x="2014" y="191" width="120" height="80" as="geometry" />
        </mxCell>
        <mxCell id="Al-cUA6ZiyIrBN0V2M45-7" style="edgeStyle=none;rounded=0;orthogonalLoop=1;jettySize=auto;html=1;exitX=0;exitY=0.5;exitDx=0;exitDy=0;endArrow=none;endFill=0;" edge="1" parent="1" source="vbIOW6Qqz1qie8O0OvLm-121">
          <mxGeometry relative="1" as="geometry">
            <mxPoint x="2001.1905670166016" y="380.7143020629883" as="targetPoint" />
          </mxGeometry>
        </mxCell>
        <mxCell id="vbIOW6Qqz1qie8O0OvLm-121" value="issue_id" style="ellipse;whiteSpace=wrap;html=1;fontSize=18;" vertex="1" parent="1">
          <mxGeometry x="2060" y="294" width="120" height="80" as="geometry" />
        </mxCell>
        <mxCell id="Al-cUA6ZiyIrBN0V2M45-8" style="edgeStyle=none;rounded=0;orthogonalLoop=1;jettySize=auto;html=1;entryX=1;entryY=0.5;entryDx=0;entryDy=0;endArrow=none;endFill=0;" edge="1" parent="1" source="vbIOW6Qqz1qie8O0OvLm-122" target="vbIOW6Qqz1qie8O0OvLm-117">
          <mxGeometry relative="1" as="geometry" />
        </mxCell>
        <mxCell id="vbIOW6Qqz1qie8O0OvLm-122" value="user_id" style="ellipse;whiteSpace=wrap;html=1;fontSize=18;" vertex="1" parent="1">
          <mxGeometry x="2153" y="381" width="120" height="80" as="geometry" />
        </mxCell>
        <mxCell id="Al-cUA6ZiyIrBN0V2M45-1" value="N" style="text;html=1;strokeColor=none;fillColor=none;align=center;verticalAlign=middle;whiteSpace=wrap;rounded=0;" vertex="1" parent="1">
          <mxGeometry x="1374" y="493" width="60" height="30" as="geometry" />
        </mxCell>
        <mxCell id="Al-cUA6ZiyIrBN0V2M45-2" value="M" style="text;html=1;strokeColor=none;fillColor=none;align=center;verticalAlign=middle;whiteSpace=wrap;rounded=0;" vertex="1" parent="1">
          <mxGeometry x="1487" y="610" width="60" height="30" as="geometry" />
        </mxCell>
        <mxCell id="Al-cUA6ZiyIrBN0V2M45-9" style="edgeStyle=none;rounded=0;orthogonalLoop=1;jettySize=auto;html=1;entryX=1;entryY=1;entryDx=0;entryDy=0;endArrow=none;endFill=0;" edge="1" parent="1" source="Al-cUA6ZiyIrBN0V2M45-3" target="vbIOW6Qqz1qie8O0OvLm-117">
          <mxGeometry relative="1" as="geometry" />
        </mxCell>
        <mxCell id="Al-cUA6ZiyIrBN0V2M45-3" value="content" style="ellipse;whiteSpace=wrap;html=1;fontSize=18;" vertex="1" parent="1">
          <mxGeometry x="2087" y="495" width="120" height="80" as="geometry" />
        </mxCell>
        <mxCell id="Al-cUA6ZiyIrBN0V2M45-10" style="edgeStyle=none;rounded=0;orthogonalLoop=1;jettySize=auto;html=1;exitX=0;exitY=0;exitDx=0;exitDy=0;endArrow=none;endFill=0;" edge="1" parent="1" source="Al-cUA6ZiyIrBN0V2M45-4">
          <mxGeometry relative="1" as="geometry">
            <mxPoint x="1973.5713450113935" y="440.7143020629883" as="targetPoint" />
          </mxGeometry>
        </mxCell>
        <mxCell id="Al-cUA6ZiyIrBN0V2M45-4" value="created_datetime" style="ellipse;whiteSpace=wrap;html=1;fontSize=18;" vertex="1" parent="1">
          <mxGeometry x="2039" y="599" width="168" height="84" as="geometry" />
        </mxCell>
      </root>
    </mxGraphModel>
  </diagram>
</mxfile>
